<?xml version="1.0" encoding="utf-8" standalone="no"?>
<!DOCTYPE svg PUBLIC "-//W3C//DTD SVG 1.1//EN"
  "http://www.w3.org/Graphics/SVG/1.1/DTD/svg11.dtd">
<svg xmlns:xlink="http://www.w3.org/1999/xlink" width="288pt" height="468pt" viewBox="0 0 288 468" xmlns="http://www.w3.org/2000/svg" version="1.1">
 <metadata>
  <rdf:RDF xmlns:dc="http://purl.org/dc/elements/1.1/" xmlns:cc="http://creativecommons.org/ns#" xmlns:rdf="http://www.w3.org/1999/02/22-rdf-syntax-ns#">
   <cc:Work>
    <dc:type rdf:resource="http://purl.org/dc/dcmitype/StillImage"/>
    <dc:date>2026-04-02T15:32:29.953404</dc:date>
    <dc:format>image/svg+xml</dc:format>
    <dc:creator>
     <cc:Agent>
      <dc:title>Matplotlib v3.10.8, https://matplotlib.org/</dc:title>
     </cc:Agent>
    </dc:creator>
   </cc:Work>
  </rdf:RDF>
 </metadata>
 <defs>
  <style type="text/css">*{stroke-linejoin: round; stroke-linecap: butt}</style>
 </defs>
 <g id="figure_1">
  <g id="patch_1">
   <path d="M 0 468 
L 288 468 
L 288 0 
L 0 0 
z
" style="fill: #ffffff"/>
  </g>
  <g id="axes_1">
   <g id="patch_2">
    <path d="M 36 416.52 
L 259.2 416.52 
L 259.2 56.16 
L 36 56.16 
z
" style="fill: #ffffff"/>
   </g>
   <g id="matplotlib.axis_1">
    <g id="xtick_1">
     <g id="line2d_1">
      <defs>
       <path id="m5ee32ae4f7" d="M 0 0 
L 0 3.5 
" style="stroke: #000000; stroke-width: 0.8"/>
      </defs>
      <g>
       <use xlink:href="#m5ee32ae4f7" x="46.145455" y="416.52" style="stroke: #000000; stroke-width: 0.8"/>
      </g>
     </g>
     <g id="text_1">
      <!-- 697 -->
      <g transform="translate(48.90483 442.6075) rotate(-90) scale(0.1 -0.1)">
       <defs>
        <path id="DejaVuSans-36" d="M 2113 2584 
Q 1688 2584 1439 2293 
Q 1191 2003 1191 1497 
Q 1191 994 1439 701 
Q 1688 409 2113 409 
Q 2538 409 2786 701 
Q 3034 994 3034 1497 
Q 3034 2003 2786 2293 
Q 2538 2584 2113 2584 
z
M 3366 4563 
L 3366 3988 
Q 3128 4100 2886 4159 
Q 2644 4219 2406 4219 
Q 1781 4219 1451 3797 
Q 1122 3375 1075 2522 
Q 1259 2794 1537 2939 
Q 1816 3084 2150 3084 
Q 2853 3084 3261 2657 
Q 3669 2231 3669 1497 
Q 3669 778 3244 343 
Q 2819 -91 2113 -91 
Q 1303 -91 875 529 
Q 447 1150 447 2328 
Q 447 3434 972 4092 
Q 1497 4750 2381 4750 
Q 2619 4750 2861 4703 
Q 3103 4656 3366 4563 
z
" transform="scale(0.015625)"/>
        <path id="DejaVuSans-39" d="M 703 97 
L 703 672 
Q 941 559 1184 500 
Q 1428 441 1663 441 
Q 2288 441 2617 861 
Q 2947 1281 2994 2138 
Q 2813 1869 2534 1725 
Q 2256 1581 1919 1581 
Q 1219 1581 811 2004 
Q 403 2428 403 3163 
Q 403 3881 828 4315 
Q 1253 4750 1959 4750 
Q 2769 4750 3195 4129 
Q 3622 3509 3622 2328 
Q 3622 1225 3098 567 
Q 2575 -91 1691 -91 
Q 1453 -91 1209 -44 
Q 966 3 703 97 
z
M 1959 2075 
Q 2384 2075 2632 2365 
Q 2881 2656 2881 3163 
Q 2881 3666 2632 3958 
Q 2384 4250 1959 4250 
Q 1534 4250 1286 3958 
Q 1038 3666 1038 3163 
Q 1038 2656 1286 2365 
Q 1534 2075 1959 2075 
z
" transform="scale(0.015625)"/>
        <path id="DejaVuSans-37" d="M 525 4666 
L 3525 4666 
L 3525 4397 
L 1831 0 
L 1172 0 
L 2766 4134 
L 525 4134 
L 525 4666 
z
" transform="scale(0.015625)"/>
       </defs>
       <use xlink:href="#DejaVuSans-36"/>
       <use xlink:href="#DejaVuSans-39" transform="translate(63.623047 0)"/>
       <use xlink:href="#DejaVuSans-37" transform="translate(127.246094 0)"/>
      </g>
     </g>
    </g>
    <g id="xtick_2">
     <g id="line2d_2">
      <g>
       <use xlink:href="#m5ee32ae4f7" x="96.872727" y="416.52" style="stroke: #000000; stroke-width: 0.8"/>
      </g>
     </g>
     <g id="text_2">
      <!-- 698 -->
      <g transform="translate(99.632102 442.6075) rotate(-90) scale(0.1 -0.1)">
       <defs>
        <path id="DejaVuSans-38" d="M 2034 2216 
Q 1584 2216 1326 1975 
Q 1069 1734 1069 1313 
Q 1069 891 1326 650 
Q 1584 409 2034 409 
Q 2484 409 2743 651 
Q 3003 894 3003 1313 
Q 3003 1734 2745 1975 
Q 2488 2216 2034 2216 
z
M 1403 2484 
Q 997 2584 770 2862 
Q 544 3141 544 3541 
Q 544 4100 942 4425 
Q 1341 4750 2034 4750 
Q 2731 4750 3128 4425 
Q 3525 4100 3525 3541 
Q 3525 3141 3298 2862 
Q 3072 2584 2669 2484 
Q 3125 2378 3379 2068 
Q 3634 1759 3634 1313 
Q 3634 634 3220 271 
Q 2806 -91 2034 -91 
Q 1263 -91 848 271 
Q 434 634 434 1313 
Q 434 1759 690 2068 
Q 947 2378 1403 2484 
z
M 1172 3481 
Q 1172 3119 1398 2916 
Q 1625 2713 2034 2713 
Q 2441 2713 2670 2916 
Q 2900 3119 2900 3481 
Q 2900 3844 2670 4047 
Q 2441 4250 2034 4250 
Q 1625 4250 1398 4047 
Q 1172 3844 1172 3481 
z
" transform="scale(0.015625)"/>
       </defs>
       <use xlink:href="#DejaVuSans-36"/>
       <use xlink:href="#DejaVuSans-39" transform="translate(63.623047 0)"/>
       <use xlink:href="#DejaVuSans-38" transform="translate(127.246094 0)"/>
      </g>
     </g>
    </g>
    <g id="xtick_3">
     <g id="line2d_3">
      <g>
       <use xlink:href="#m5ee32ae4f7" x="147.6" y="416.52" style="stroke: #000000; stroke-width: 0.8"/>
      </g>
     </g>
     <g id="text_3">
      <!-- 699 -->
      <g transform="translate(150.359375 442.6075) rotate(-90) scale(0.1 -0.1)">
       <use xlink:href="#DejaVuSans-36"/>
       <use xlink:href="#DejaVuSans-39" transform="translate(63.623047 0)"/>
       <use xlink:href="#DejaVuSans-39" transform="translate(127.246094 0)"/>
      </g>
     </g>
    </g>
    <g id="xtick_4">
     <g id="line2d_4">
      <g>
       <use xlink:href="#m5ee32ae4f7" x="198.327273" y="416.52" style="stroke: #000000; stroke-width: 0.8"/>
      </g>
     </g>
     <g id="text_4">
      <!-- 700 -->
      <g transform="translate(201.086648 442.6075) rotate(-90) scale(0.1 -0.1)">
       <defs>
        <path id="DejaVuSans-30" d="M 2034 4250 
Q 1547 4250 1301 3770 
Q 1056 3291 1056 2328 
Q 1056 1369 1301 889 
Q 1547 409 2034 409 
Q 2525 409 2770 889 
Q 3016 1369 3016 2328 
Q 3016 3291 2770 3770 
Q 2525 4250 2034 4250 
z
M 2034 4750 
Q 2819 4750 3233 4129 
Q 3647 3509 3647 2328 
Q 3647 1150 3233 529 
Q 2819 -91 2034 -91 
Q 1250 -91 836 529 
Q 422 1150 422 2328 
Q 422 3509 836 4129 
Q 1250 4750 2034 4750 
z
" transform="scale(0.015625)"/>
       </defs>
       <use xlink:href="#DejaVuSans-37"/>
       <use xlink:href="#DejaVuSans-30" transform="translate(63.623047 0)"/>
       <use xlink:href="#DejaVuSans-30" transform="translate(127.246094 0)"/>
      </g>
     </g>
    </g>
    <g id="xtick_5">
     <g id="line2d_5">
      <g>
       <use xlink:href="#m5ee32ae4f7" x="249.054545" y="416.52" style="stroke: #000000; stroke-width: 0.8"/>
      </g>
     </g>
     <g id="text_5">
      <!-- 701 -->
      <g transform="translate(251.81392 442.6075) rotate(-90) scale(0.1 -0.1)">
       <defs>
        <path id="DejaVuSans-31" d="M 794 531 
L 1825 531 
L 1825 4091 
L 703 3866 
L 703 4441 
L 1819 4666 
L 2450 4666 
L 2450 531 
L 3481 531 
L 3481 0 
L 794 0 
L 794 531 
z
" transform="scale(0.015625)"/>
       </defs>
       <use xlink:href="#DejaVuSans-37"/>
       <use xlink:href="#DejaVuSans-30" transform="translate(63.623047 0)"/>
       <use xlink:href="#DejaVuSans-31" transform="translate(127.246094 0)"/>
      </g>
     </g>
    </g>
   </g>
   <g id="matplotlib.axis_2">
    <g id="ytick_1">
     <g id="line2d_6"/>
    </g>
    <g id="ytick_2">
     <g id="line2d_7"/>
    </g>
    <g id="ytick_3">
     <g id="line2d_8"/>
    </g>
    <g id="ytick_4">
     <g id="line2d_9"/>
    </g>
    <g id="ytick_5">
     <g id="line2d_10"/>
    </g>
   </g>
   <g id="LineCollection_1">
    <path d="M 46.145455 177.948333 
L 96.872727 177.948333 
" clip-path="url(#pb077e78cca)" style="fill: none; stroke: #000000; stroke-width: 2; stroke-linecap: square"/>
    <path d="M 96.872727 72.54 
L 96.872727 322.79 
" clip-path="url(#pb077e78cca)" style="fill: none; stroke: #000000; stroke-width: 2; stroke-linecap: square"/>
    <path d="M 96.872727 72.54 
L 198.327273 72.54 
" clip-path="url(#pb077e78cca)" style="fill: none; stroke: #000000; stroke-width: 2; stroke-linecap: square"/>
    <path d="M 96.872727 108.94 
L 198.327273 108.94 
" clip-path="url(#pb077e78cca)" style="fill: none; stroke: #000000; stroke-width: 2; stroke-linecap: square"/>
    <path d="M 96.872727 145.34 
L 96.872727 145.34 
" clip-path="url(#pb077e78cca)" style="fill: none; stroke: #000000; stroke-width: 2; stroke-linecap: square"/>
    <path d="M 96.872727 181.74 
L 249.054545 181.74 
" clip-path="url(#pb077e78cca)" style="fill: none; stroke: #000000; stroke-width: 2; stroke-linecap: square"/>
    <path d="M 96.872727 236.34 
L 96.872727 236.34 
" clip-path="url(#pb077e78cca)" style="fill: none; stroke: #000000; stroke-width: 2; stroke-linecap: square"/>
    <path d="M 96.872727 218.14 
L 96.872727 254.54 
" clip-path="url(#pb077e78cca)" style="fill: none; stroke: #000000; stroke-width: 2; stroke-linecap: square"/>
    <path d="M 96.872727 218.14 
L 96.872727 218.14 
" clip-path="url(#pb077e78cca)" style="fill: none; stroke: #000000; stroke-width: 2; stroke-linecap: square"/>
    <path d="M 96.872727 254.54 
L 96.872727 254.54 
" clip-path="url(#pb077e78cca)" style="fill: none; stroke: #000000; stroke-width: 2; stroke-linecap: square"/>
    <path d="M 96.872727 322.79 
L 96.872727 322.79 
" clip-path="url(#pb077e78cca)" style="fill: none; stroke: #000000; stroke-width: 2; stroke-linecap: square"/>
    <path d="M 96.872727 290.94 
L 96.872727 354.64 
" clip-path="url(#pb077e78cca)" style="fill: none; stroke: #000000; stroke-width: 2; stroke-linecap: square"/>
    <path d="M 96.872727 290.94 
L 96.872727 290.94 
" clip-path="url(#pb077e78cca)" style="fill: none; stroke: #000000; stroke-width: 2; stroke-linecap: square"/>
    <path d="M 96.872727 354.64 
L 96.872727 354.64 
" clip-path="url(#pb077e78cca)" style="fill: none; stroke: #000000; stroke-width: 2; stroke-linecap: square"/>
    <path d="M 96.872727 327.34 
L 96.872727 381.94 
" clip-path="url(#pb077e78cca)" style="fill: none; stroke: #000000; stroke-width: 2; stroke-linecap: square"/>
    <path d="M 96.872727 327.34 
L 96.872727 327.34 
" clip-path="url(#pb077e78cca)" style="fill: none; stroke: #000000; stroke-width: 2; stroke-linecap: square"/>
    <path d="M 96.872727 381.94 
L 96.872727 381.94 
" clip-path="url(#pb077e78cca)" style="fill: none; stroke: #000000; stroke-width: 2; stroke-linecap: square"/>
    <path d="M 96.872727 363.74 
L 96.872727 400.14 
" clip-path="url(#pb077e78cca)" style="fill: none; stroke: #000000; stroke-width: 2; stroke-linecap: square"/>
    <path d="M 96.872727 363.74 
L 96.872727 363.74 
" clip-path="url(#pb077e78cca)" style="fill: none; stroke: #000000; stroke-width: 2; stroke-linecap: square"/>
    <path d="M 96.872727 400.14 
L 96.872727 400.14 
" clip-path="url(#pb077e78cca)" style="fill: none; stroke: #000000; stroke-width: 2; stroke-linecap: square"/>
   </g>
   <g id="patch_3">
    <path d="M 36 416.52 
L 259.2 416.52 
" style="fill: none; stroke: #000000; stroke-width: 0.8; stroke-linejoin: miter; stroke-linecap: square"/>
   </g>
   <g id="PathCollection_1">
    <path d="M 198.327273 75.702278 
C 199.165919 75.702278 199.970329 75.36908 200.563341 74.776068 
C 201.156353 74.183056 201.48955 73.378646 201.48955 72.54 
C 201.48955 71.701354 201.156353 70.896944 200.563341 70.303932 
C 199.970329 69.71092 199.165919 69.377722 198.327273 69.377722 
C 197.488627 69.377722 196.684217 69.71092 196.091205 70.303932 
C 195.498193 70.896944 195.164995 71.701354 195.164995 72.54 
C 195.164995 73.378646 195.498193 74.183056 196.091205 74.776068 
C 196.684217 75.36908 197.488627 75.702278 198.327273 75.702278 
z
" clip-path="url(#pb077e78cca)"/>
    <path d="M 198.327273 112.102278 
C 199.165919 112.102278 199.970329 111.76908 200.563341 111.176068 
C 201.156353 110.583056 201.48955 109.778646 201.48955 108.94 
C 201.48955 108.101354 201.156353 107.296944 200.563341 106.703932 
C 199.970329 106.11092 199.165919 105.777722 198.327273 105.777722 
C 197.488627 105.777722 196.684217 106.11092 196.091205 106.703932 
C 195.498193 107.296944 195.164995 108.101354 195.164995 108.94 
C 195.164995 109.778646 195.498193 110.583056 196.091205 111.176068 
C 196.684217 111.76908 197.488627 112.102278 198.327273 112.102278 
z
" clip-path="url(#pb077e78cca)"/>
    <path d="M 96.872727 148.502278 
C 97.711373 148.502278 98.515783 148.16908 99.108795 147.576068 
C 99.701807 146.983056 100.035005 146.178646 100.035005 145.34 
C 100.035005 144.501354 99.701807 143.696944 99.108795 143.103932 
C 98.515783 142.51092 97.711373 142.177722 96.872727 142.177722 
C 96.034081 142.177722 95.229671 142.51092 94.636659 143.103932 
C 94.043647 143.696944 93.71045 144.501354 93.71045 145.34 
C 93.71045 146.178646 94.043647 146.983056 94.636659 147.576068 
C 95.229671 148.16908 96.034081 148.502278 96.872727 148.502278 
z
" clip-path="url(#pb077e78cca)"/>
    <path d="M 249.054545 184.902278 
C 249.893191 184.902278 250.697601 184.56908 251.290613 183.976068 
C 251.883626 183.383056 252.216823 182.578646 252.216823 181.74 
C 252.216823 180.901354 251.883626 180.096944 251.290613 179.503932 
C 250.697601 178.91092 249.893191 178.577722 249.054545 178.577722 
C 248.2159 178.577722 247.41149 178.91092 246.818477 179.503932 
C 246.225465 180.096944 245.892268 180.901354 245.892268 181.74 
C 245.892268 182.578646 246.225465 183.383056 246.818477 183.976068 
C 247.41149 184.56908 248.2159 184.902278 249.054545 184.902278 
z
" clip-path="url(#pb077e78cca)"/>
    <path d="M 96.872727 221.302278 
C 97.711373 221.302278 98.515783 220.96908 99.108795 220.376068 
C 99.701807 219.783056 100.035005 218.978646 100.035005 218.14 
C 100.035005 217.301354 99.701807 216.496944 99.108795 215.903932 
C 98.515783 215.31092 97.711373 214.977722 96.872727 214.977722 
C 96.034081 214.977722 95.229671 215.31092 94.636659 215.903932 
C 94.043647 216.496944 93.71045 217.301354 93.71045 218.14 
C 93.71045 218.978646 94.043647 219.783056 94.636659 220.376068 
C 95.229671 220.96908 96.034081 221.302278 96.872727 221.302278 
z
" clip-path="url(#pb077e78cca)"/>
    <path d="M 96.872727 257.702278 
C 97.711373 257.702278 98.515783 257.36908 99.108795 256.776068 
C 99.701807 256.183056 100.035005 255.378646 100.035005 254.54 
C 100.035005 253.701354 99.701807 252.896944 99.108795 252.303932 
C 98.515783 251.71092 97.711373 251.377722 96.872727 251.377722 
C 96.034081 251.377722 95.229671 251.71092 94.636659 252.303932 
C 94.043647 252.896944 93.71045 253.701354 93.71045 254.54 
C 93.71045 255.378646 94.043647 256.183056 94.636659 256.776068 
C 95.229671 257.36908 96.034081 257.702278 96.872727 257.702278 
z
" clip-path="url(#pb077e78cca)"/>
    <path d="M 96.872727 294.102278 
C 97.711373 294.102278 98.515783 293.76908 99.108795 293.176068 
C 99.701807 292.583056 100.035005 291.778646 100.035005 290.94 
C 100.035005 290.101354 99.701807 289.296944 99.108795 288.703932 
C 98.515783 288.11092 97.711373 287.777722 96.872727 287.777722 
C 96.034081 287.777722 95.229671 288.11092 94.636659 288.703932 
C 94.043647 289.296944 93.71045 290.101354 93.71045 290.94 
C 93.71045 291.778646 94.043647 292.583056 94.636659 293.176068 
C 95.229671 293.76908 96.034081 294.102278 96.872727 294.102278 
z
" clip-path="url(#pb077e78cca)"/>
    <path d="M 96.872727 330.502278 
C 97.711373 330.502278 98.515783 330.16908 99.108795 329.576068 
C 99.701807 328.983056 100.035005 328.178646 100.035005 327.34 
C 100.035005 326.501354 99.701807 325.696944 99.108795 325.103932 
C 98.515783 324.51092 97.711373 324.177722 96.872727 324.177722 
C 96.034081 324.177722 95.229671 324.51092 94.636659 325.103932 
C 94.043647 325.696944 93.71045 326.501354 93.71045 327.34 
C 93.71045 328.178646 94.043647 328.983056 94.636659 329.576068 
C 95.229671 330.16908 96.034081 330.502278 96.872727 330.502278 
z
" clip-path="url(#pb077e78cca)"/>
    <path d="M 96.872727 366.902278 
C 97.711373 366.902278 98.515783 366.56908 99.108795 365.976068 
C 99.701807 365.383056 100.035005 364.578646 100.035005 363.74 
C 100.035005 362.901354 99.701807 362.096944 99.108795 361.503932 
C 98.515783 360.91092 97.711373 360.577722 96.872727 360.577722 
C 96.034081 360.577722 95.229671 360.91092 94.636659 361.503932 
C 94.043647 362.096944 93.71045 362.901354 93.71045 363.74 
C 93.71045 364.578646 94.043647 365.383056 94.636659 365.976068 
C 95.229671 366.56908 96.034081 366.902278 96.872727 366.902278 
z
" clip-path="url(#pb077e78cca)"/>
    <path d="M 96.872727 403.302278 
C 97.711373 403.302278 98.515783 402.96908 99.108795 402.376068 
C 99.701807 401.783056 100.035005 400.978646 100.035005 400.14 
C 100.035005 399.301354 99.701807 398.496944 99.108795 397.903932 
C 98.515783 397.31092 97.711373 396.977722 96.872727 396.977722 
C 96.034081 396.977722 95.229671 397.31092 94.636659 397.903932 
C 94.043647 398.496944 93.71045 399.301354 93.71045 400.14 
C 93.71045 400.978646 94.043647 401.783056 94.636659 402.376068 
C 95.229671 402.96908 96.034081 403.302278 96.872727 403.302278 
z
" clip-path="url(#pb077e78cca)"/>
   </g>
   <g id="PathCollection_2">
    <path d="M 198.327273 74.776068 
C 198.920285 74.776068 199.489089 74.540462 199.908412 74.121139 
C 200.327734 73.701816 200.563341 73.133012 200.563341 72.54 
C 200.563341 71.946988 200.327734 71.378184 199.908412 70.958861 
C 199.489089 70.539538 198.920285 70.303932 198.327273 70.303932 
C 197.734261 70.303932 197.165457 70.539538 196.746134 70.958861 
C 196.326811 71.378184 196.091205 71.946988 196.091205 72.54 
C 196.091205 73.133012 196.326811 73.701816 196.746134 74.121139 
C 197.165457 74.540462 197.734261 74.776068 198.327273 74.776068 
z
" clip-path="url(#pb077e78cca)" style="fill: #bebada"/>
    <path d="M 198.327273 111.176068 
C 198.920285 111.176068 199.489089 110.940462 199.908412 110.521139 
C 200.327734 110.101816 200.563341 109.533012 200.563341 108.94 
C 200.563341 108.346988 200.327734 107.778184 199.908412 107.358861 
C 199.489089 106.939538 198.920285 106.703932 198.327273 106.703932 
C 197.734261 106.703932 197.165457 106.939538 196.746134 107.358861 
C 196.326811 107.778184 196.091205 108.346988 196.091205 108.94 
C 196.091205 109.533012 196.326811 110.101816 196.746134 110.521139 
C 197.165457 110.940462 197.734261 111.176068 198.327273 111.176068 
z
" clip-path="url(#pb077e78cca)" style="fill: #bebada"/>
    <path d="M 96.872727 147.576068 
C 97.465739 147.576068 98.034543 147.340462 98.453866 146.921139 
C 98.873189 146.501816 99.108795 145.933012 99.108795 145.34 
C 99.108795 144.746988 98.873189 144.178184 98.453866 143.758861 
C 98.034543 143.339538 97.465739 143.103932 96.872727 143.103932 
C 96.279715 143.103932 95.710911 143.339538 95.291588 143.758861 
C 94.872266 144.178184 94.636659 144.746988 94.636659 145.34 
C 94.636659 145.933012 94.872266 146.501816 95.291588 146.921139 
C 95.710911 147.340462 96.279715 147.576068 96.872727 147.576068 
z
" clip-path="url(#pb077e78cca)" style="fill: #8dd3c7"/>
    <path d="M 249.054545 183.976068 
C 249.647558 183.976068 250.216361 183.740462 250.635684 183.321139 
C 251.055007 182.901816 251.290613 182.333012 251.290613 181.74 
C 251.290613 181.146988 251.055007 180.578184 250.635684 180.158861 
C 250.216361 179.739538 249.647558 179.503932 249.054545 179.503932 
C 248.461533 179.503932 247.89273 179.739538 247.473407 180.158861 
C 247.054084 180.578184 246.818477 181.146988 246.818477 181.74 
C 246.818477 182.333012 247.054084 182.901816 247.473407 183.321139 
C 247.89273 183.740462 248.461533 183.976068 249.054545 183.976068 
z
" clip-path="url(#pb077e78cca)" style="fill: #bebada"/>
    <path d="M 96.872727 220.376068 
C 97.465739 220.376068 98.034543 220.140462 98.453866 219.721139 
C 98.873189 219.301816 99.108795 218.733012 99.108795 218.14 
C 99.108795 217.546988 98.873189 216.978184 98.453866 216.558861 
C 98.034543 216.139538 97.465739 215.903932 96.872727 215.903932 
C 96.279715 215.903932 95.710911 216.139538 95.291588 216.558861 
C 94.872266 216.978184 94.636659 217.546988 94.636659 218.14 
C 94.636659 218.733012 94.872266 219.301816 95.291588 219.721139 
C 95.710911 220.140462 96.279715 220.376068 96.872727 220.376068 
z
" clip-path="url(#pb077e78cca)" style="fill: #8dd3c7"/>
    <path d="M 96.872727 256.776068 
C 97.465739 256.776068 98.034543 256.540462 98.453866 256.121139 
C 98.873189 255.701816 99.108795 255.133012 99.108795 254.54 
C 99.108795 253.946988 98.873189 253.378184 98.453866 252.958861 
C 98.034543 252.539538 97.465739 252.303932 96.872727 252.303932 
C 96.279715 252.303932 95.710911 252.539538 95.291588 252.958861 
C 94.872266 253.378184 94.636659 253.946988 94.636659 254.54 
C 94.636659 255.133012 94.872266 255.701816 95.291588 256.121139 
C 95.710911 256.540462 96.279715 256.776068 96.872727 256.776068 
z
" clip-path="url(#pb077e78cca)" style="fill: #8dd3c7"/>
    <path d="M 96.872727 293.176068 
C 97.465739 293.176068 98.034543 292.940462 98.453866 292.521139 
C 98.873189 292.101816 99.108795 291.533012 99.108795 290.94 
C 99.108795 290.346988 98.873189 289.778184 98.453866 289.358861 
C 98.034543 288.939538 97.465739 288.703932 96.872727 288.703932 
C 96.279715 288.703932 95.710911 288.939538 95.291588 289.358861 
C 94.872266 289.778184 94.636659 290.346988 94.636659 290.94 
C 94.636659 291.533012 94.872266 292.101816 95.291588 292.521139 
C 95.710911 292.940462 96.279715 293.176068 96.872727 293.176068 
z
" clip-path="url(#pb077e78cca)" style="fill: #bebada"/>
    <path d="M 96.872727 329.576068 
C 97.465739 329.576068 98.034543 329.340462 98.453866 328.921139 
C 98.873189 328.501816 99.108795 327.933012 99.108795 327.34 
C 99.108795 326.746988 98.873189 326.178184 98.453866 325.758861 
C 98.034543 325.339538 97.465739 325.103932 96.872727 325.103932 
C 96.279715 325.103932 95.710911 325.339538 95.291588 325.758861 
C 94.872266 326.178184 94.636659 326.746988 94.636659 327.34 
C 94.636659 327.933012 94.872266 328.501816 95.291588 328.921139 
C 95.710911 329.340462 96.279715 329.576068 96.872727 329.576068 
z
" clip-path="url(#pb077e78cca)" style="fill: #bebada"/>
    <path d="M 96.872727 365.976068 
C 97.465739 365.976068 98.034543 365.740462 98.453866 365.321139 
C 98.873189 364.901816 99.108795 364.333012 99.108795 363.74 
C 99.108795 363.146988 98.873189 362.578184 98.453866 362.158861 
C 98.034543 361.739538 97.465739 361.503932 96.872727 361.503932 
C 96.279715 361.503932 95.710911 361.739538 95.291588 362.158861 
C 94.872266 362.578184 94.636659 363.146988 94.636659 363.74 
C 94.636659 364.333012 94.872266 364.901816 95.291588 365.321139 
C 95.710911 365.740462 96.279715 365.976068 96.872727 365.976068 
z
" clip-path="url(#pb077e78cca)" style="fill: #8dd3c7"/>
    <path d="M 96.872727 402.376068 
C 97.465739 402.376068 98.034543 402.140462 98.453866 401.721139 
C 98.873189 401.301816 99.108795 400.733012 99.108795 400.14 
C 99.108795 399.546988 98.873189 398.978184 98.453866 398.558861 
C 98.034543 398.139538 97.465739 397.903932 96.872727 397.903932 
C 96.279715 397.903932 95.710911 398.139538 95.291588 398.558861 
C 94.872266 398.978184 94.636659 399.546988 94.636659 400.14 
C 94.636659 400.733012 94.872266 401.301816 95.291588 401.721139 
C 95.710911 402.140462 96.279715 402.376068 96.872727 402.376068 
z
" clip-path="url(#pb077e78cca)" style="fill: #8dd3c7"/>
   </g>
  </g>
 </g>
 <defs>
  <clipPath id="pb077e78cca">
   <rect x="36" y="56.16" width="223.2" height="360.36"/>
  </clipPath>
 </defs>
</svg>
