<?xml version="1.0" encoding="utf-8" standalone="no"?>
<!DOCTYPE svg PUBLIC "-//W3C//DTD SVG 1.1//EN"
  "http://www.w3.org/Graphics/SVG/1.1/DTD/svg11.dtd">
<svg xmlns:xlink="http://www.w3.org/1999/xlink" width="288pt" height="504pt" viewBox="0 0 288 504" xmlns="http://www.w3.org/2000/svg" version="1.1">
 <metadata>
  <rdf:RDF xmlns:dc="http://purl.org/dc/elements/1.1/" xmlns:cc="http://creativecommons.org/ns#" xmlns:rdf="http://www.w3.org/1999/02/22-rdf-syntax-ns#">
   <cc:Work>
    <dc:type rdf:resource="http://purl.org/dc/dcmitype/StillImage"/>
    <dc:date>2026-04-02T15:32:29.331065</dc:date>
    <dc:format>image/svg+xml</dc:format>
    <dc:creator>
     <cc:Agent>
      <dc:title>Matplotlib v3.10.8, https://matplotlib.org/</dc:title>
     </cc:Agent>
    </dc:creator>
   </cc:Work>
  </rdf:RDF>
 </metadata>
 <defs>
  <style type="text/css">*{stroke-linejoin: round; stroke-linecap: butt}</style>
 </defs>
 <g id="figure_1">
  <g id="patch_1">
   <path d="M 0 504 
L 288 504 
L 288 0 
L 0 0 
z
" style="fill: #ffffff"/>
  </g>
  <g id="axes_1">
   <g id="patch_2">
    <path d="M 36 448.56 
L 259.2 448.56 
L 259.2 60.48 
L 36 60.48 
z
" style="fill: #ffffff"/>
   </g>
   <g id="matplotlib.axis_1">
    <g id="xtick_1">
     <g id="line2d_1">
      <defs>
       <path id="mb6e6e21664" d="M 0 0 
L 0 3.5 
" style="stroke: #000000; stroke-width: 0.8"/>
      </defs>
      <g>
       <use xlink:href="#mb6e6e21664" x="46.145455" y="448.56" style="stroke: #000000; stroke-width: 0.8"/>
      </g>
     </g>
     <g id="text_1">
      <!-- 696.0 -->
      <g transform="translate(48.90483 484.188125) rotate(-90) scale(0.1 -0.1)">
       <defs>
        <path id="DejaVuSans-36" d="M 2113 2584 
Q 1688 2584 1439 2293 
Q 1191 2003 1191 1497 
Q 1191 994 1439 701 
Q 1688 409 2113 409 
Q 2538 409 2786 701 
Q 3034 994 3034 1497 
Q 3034 2003 2786 2293 
Q 2538 2584 2113 2584 
z
M 3366 4563 
L 3366 3988 
Q 3128 4100 2886 4159 
Q 2644 4219 2406 4219 
Q 1781 4219 1451 3797 
Q 1122 3375 1075 2522 
Q 1259 2794 1537 2939 
Q 1816 3084 2150 3084 
Q 2853 3084 3261 2657 
Q 3669 2231 3669 1497 
Q 3669 778 3244 343 
Q 2819 -91 2113 -91 
Q 1303 -91 875 529 
Q 447 1150 447 2328 
Q 447 3434 972 4092 
Q 1497 4750 2381 4750 
Q 2619 4750 2861 4703 
Q 3103 4656 3366 4563 
z
" transform="scale(0.015625)"/>
        <path id="DejaVuSans-39" d="M 703 97 
L 703 672 
Q 941 559 1184 500 
Q 1428 441 1663 441 
Q 2288 441 2617 861 
Q 2947 1281 2994 2138 
Q 2813 1869 2534 1725 
Q 2256 1581 1919 1581 
Q 1219 1581 811 2004 
Q 403 2428 403 3163 
Q 403 3881 828 4315 
Q 1253 4750 1959 4750 
Q 2769 4750 3195 4129 
Q 3622 3509 3622 2328 
Q 3622 1225 3098 567 
Q 2575 -91 1691 -91 
Q 1453 -91 1209 -44 
Q 966 3 703 97 
z
M 1959 2075 
Q 2384 2075 2632 2365 
Q 2881 2656 2881 3163 
Q 2881 3666 2632 3958 
Q 2384 4250 1959 4250 
Q 1534 4250 1286 3958 
Q 1038 3666 1038 3163 
Q 1038 2656 1286 2365 
Q 1534 2075 1959 2075 
z
" transform="scale(0.015625)"/>
        <path id="DejaVuSans-2e" d="M 684 794 
L 1344 794 
L 1344 0 
L 684 0 
L 684 794 
z
" transform="scale(0.015625)"/>
        <path id="DejaVuSans-30" d="M 2034 4250 
Q 1547 4250 1301 3770 
Q 1056 3291 1056 2328 
Q 1056 1369 1301 889 
Q 1547 409 2034 409 
Q 2525 409 2770 889 
Q 3016 1369 3016 2328 
Q 3016 3291 2770 3770 
Q 2525 4250 2034 4250 
z
M 2034 4750 
Q 2819 4750 3233 4129 
Q 3647 3509 3647 2328 
Q 3647 1150 3233 529 
Q 2819 -91 2034 -91 
Q 1250 -91 836 529 
Q 422 1150 422 2328 
Q 422 3509 836 4129 
Q 1250 4750 2034 4750 
z
" transform="scale(0.015625)"/>
       </defs>
       <use xlink:href="#DejaVuSans-36"/>
       <use xlink:href="#DejaVuSans-39" transform="translate(63.623047 0)"/>
       <use xlink:href="#DejaVuSans-36" transform="translate(127.246094 0)"/>
       <use xlink:href="#DejaVuSans-2e" transform="translate(190.869141 0)"/>
       <use xlink:href="#DejaVuSans-30" transform="translate(222.65625 0)"/>
      </g>
     </g>
    </g>
    <g id="xtick_2">
     <g id="line2d_2">
      <g>
       <use xlink:href="#mb6e6e21664" x="96.872727" y="448.56" style="stroke: #000000; stroke-width: 0.8"/>
      </g>
     </g>
     <g id="text_2">
      <!-- 696.5 -->
      <g transform="translate(99.632102 484.188125) rotate(-90) scale(0.1 -0.1)">
       <defs>
        <path id="DejaVuSans-35" d="M 691 4666 
L 3169 4666 
L 3169 4134 
L 1269 4134 
L 1269 2991 
Q 1406 3038 1543 3061 
Q 1681 3084 1819 3084 
Q 2600 3084 3056 2656 
Q 3513 2228 3513 1497 
Q 3513 744 3044 326 
Q 2575 -91 1722 -91 
Q 1428 -91 1123 -41 
Q 819 9 494 109 
L 494 744 
Q 775 591 1075 516 
Q 1375 441 1709 441 
Q 2250 441 2565 725 
Q 2881 1009 2881 1497 
Q 2881 1984 2565 2268 
Q 2250 2553 1709 2553 
Q 1456 2553 1204 2497 
Q 953 2441 691 2322 
L 691 4666 
z
" transform="scale(0.015625)"/>
       </defs>
       <use xlink:href="#DejaVuSans-36"/>
       <use xlink:href="#DejaVuSans-39" transform="translate(63.623047 0)"/>
       <use xlink:href="#DejaVuSans-36" transform="translate(127.246094 0)"/>
       <use xlink:href="#DejaVuSans-2e" transform="translate(190.869141 0)"/>
       <use xlink:href="#DejaVuSans-35" transform="translate(222.65625 0)"/>
      </g>
     </g>
    </g>
    <g id="xtick_3">
     <g id="line2d_3">
      <g>
       <use xlink:href="#mb6e6e21664" x="147.6" y="448.56" style="stroke: #000000; stroke-width: 0.8"/>
      </g>
     </g>
     <g id="text_3">
      <!-- 697.0 -->
      <g transform="translate(150.359375 484.188125) rotate(-90) scale(0.1 -0.1)">
       <defs>
        <path id="DejaVuSans-37" d="M 525 4666 
L 3525 4666 
L 3525 4397 
L 1831 0 
L 1172 0 
L 2766 4134 
L 525 4134 
L 525 4666 
z
" transform="scale(0.015625)"/>
       </defs>
       <use xlink:href="#DejaVuSans-36"/>
       <use xlink:href="#DejaVuSans-39" transform="translate(63.623047 0)"/>
       <use xlink:href="#DejaVuSans-37" transform="translate(127.246094 0)"/>
       <use xlink:href="#DejaVuSans-2e" transform="translate(190.869141 0)"/>
       <use xlink:href="#DejaVuSans-30" transform="translate(222.65625 0)"/>
      </g>
     </g>
    </g>
    <g id="xtick_4">
     <g id="line2d_4">
      <g>
       <use xlink:href="#mb6e6e21664" x="198.327273" y="448.56" style="stroke: #000000; stroke-width: 0.8"/>
      </g>
     </g>
     <g id="text_4">
      <!-- 697.5 -->
      <g transform="translate(201.086648 484.188125) rotate(-90) scale(0.1 -0.1)">
       <use xlink:href="#DejaVuSans-36"/>
       <use xlink:href="#DejaVuSans-39" transform="translate(63.623047 0)"/>
       <use xlink:href="#DejaVuSans-37" transform="translate(127.246094 0)"/>
       <use xlink:href="#DejaVuSans-2e" transform="translate(190.869141 0)"/>
       <use xlink:href="#DejaVuSans-35" transform="translate(222.65625 0)"/>
      </g>
     </g>
    </g>
    <g id="xtick_5">
     <g id="line2d_5">
      <g>
       <use xlink:href="#mb6e6e21664" x="249.054545" y="448.56" style="stroke: #000000; stroke-width: 0.8"/>
      </g>
     </g>
     <g id="text_5">
      <!-- 698.0 -->
      <g transform="translate(251.81392 484.188125) rotate(-90) scale(0.1 -0.1)">
       <defs>
        <path id="DejaVuSans-38" d="M 2034 2216 
Q 1584 2216 1326 1975 
Q 1069 1734 1069 1313 
Q 1069 891 1326 650 
Q 1584 409 2034 409 
Q 2484 409 2743 651 
Q 3003 894 3003 1313 
Q 3003 1734 2745 1975 
Q 2488 2216 2034 2216 
z
M 1403 2484 
Q 997 2584 770 2862 
Q 544 3141 544 3541 
Q 544 4100 942 4425 
Q 1341 4750 2034 4750 
Q 2731 4750 3128 4425 
Q 3525 4100 3525 3541 
Q 3525 3141 3298 2862 
Q 3072 2584 2669 2484 
Q 3125 2378 3379 2068 
Q 3634 1759 3634 1313 
Q 3634 634 3220 271 
Q 2806 -91 2034 -91 
Q 1263 -91 848 271 
Q 434 634 434 1313 
Q 434 1759 690 2068 
Q 947 2378 1403 2484 
z
M 1172 3481 
Q 1172 3119 1398 2916 
Q 1625 2713 2034 2713 
Q 2441 2713 2670 2916 
Q 2900 3119 2900 3481 
Q 2900 3844 2670 4047 
Q 2441 4250 2034 4250 
Q 1625 4250 1398 4047 
Q 1172 3844 1172 3481 
z
" transform="scale(0.015625)"/>
       </defs>
       <use xlink:href="#DejaVuSans-36"/>
       <use xlink:href="#DejaVuSans-39" transform="translate(63.623047 0)"/>
       <use xlink:href="#DejaVuSans-38" transform="translate(127.246094 0)"/>
       <use xlink:href="#DejaVuSans-2e" transform="translate(190.869141 0)"/>
       <use xlink:href="#DejaVuSans-30" transform="translate(222.65625 0)"/>
      </g>
     </g>
    </g>
   </g>
   <g id="matplotlib.axis_2">
    <g id="ytick_1">
     <g id="line2d_6"/>
    </g>
    <g id="ytick_2">
     <g id="line2d_7"/>
    </g>
    <g id="ytick_3">
     <g id="line2d_8"/>
    </g>
    <g id="ytick_4">
     <g id="line2d_9"/>
    </g>
    <g id="ytick_5">
     <g id="line2d_10"/>
    </g>
    <g id="ytick_6">
     <g id="line2d_11"/>
    </g>
    <g id="ytick_7">
     <g id="line2d_12"/>
    </g>
   </g>
   <g id="LineCollection_1">
    <path d="M 46.145455 221.953846 
L 147.6 221.953846 
" clip-path="url(#pd056ec691a)" style="fill: none; stroke: #000000; stroke-width: 2; stroke-linecap: square"/>
    <path d="M 147.6 78.12 
L 147.6 417.350769 
" clip-path="url(#pd056ec691a)" style="fill: none; stroke: #000000; stroke-width: 2; stroke-linecap: square"/>
    <path d="M 147.6 78.12 
L 249.054545 78.12 
" clip-path="url(#pd056ec691a)" style="fill: none; stroke: #000000; stroke-width: 2; stroke-linecap: square"/>
    <path d="M 147.6 105.258462 
L 249.054545 105.258462 
" clip-path="url(#pd056ec691a)" style="fill: none; stroke: #000000; stroke-width: 2; stroke-linecap: square"/>
    <path d="M 147.6 132.396923 
L 147.6 132.396923 
" clip-path="url(#pd056ec691a)" style="fill: none; stroke: #000000; stroke-width: 2; stroke-linecap: square"/>
    <path d="M 147.6 159.535385 
L 147.6 159.535385 
" clip-path="url(#pd056ec691a)" style="fill: none; stroke: #000000; stroke-width: 2; stroke-linecap: square"/>
    <path d="M 147.6 186.673846 
L 249.054545 186.673846 
" clip-path="url(#pd056ec691a)" style="fill: none; stroke: #000000; stroke-width: 2; stroke-linecap: square"/>
    <path d="M 147.6 213.812308 
L 147.6 213.812308 
" clip-path="url(#pd056ec691a)" style="fill: none; stroke: #000000; stroke-width: 2; stroke-linecap: square"/>
    <path d="M 147.6 254.52 
L 249.054545 254.52 
" clip-path="url(#pd056ec691a)" style="fill: none; stroke: #000000; stroke-width: 2; stroke-linecap: square"/>
    <path d="M 249.054545 240.950769 
L 249.054545 268.089231 
" clip-path="url(#pd056ec691a)" style="fill: none; stroke: #000000; stroke-width: 2; stroke-linecap: square"/>
    <path d="M 249.054545 240.950769 
L 249.054545 240.950769 
" clip-path="url(#pd056ec691a)" style="fill: none; stroke: #000000; stroke-width: 2; stroke-linecap: square"/>
    <path d="M 249.054545 268.089231 
L 249.054545 268.089231 
" clip-path="url(#pd056ec691a)" style="fill: none; stroke: #000000; stroke-width: 2; stroke-linecap: square"/>
    <path d="M 147.6 308.796923 
L 147.6 308.796923 
" clip-path="url(#pd056ec691a)" style="fill: none; stroke: #000000; stroke-width: 2; stroke-linecap: square"/>
    <path d="M 147.6 295.227692 
L 147.6 322.366154 
" clip-path="url(#pd056ec691a)" style="fill: none; stroke: #000000; stroke-width: 2; stroke-linecap: square"/>
    <path d="M 147.6 295.227692 
L 147.6 295.227692 
" clip-path="url(#pd056ec691a)" style="fill: none; stroke: #000000; stroke-width: 2; stroke-linecap: square"/>
    <path d="M 147.6 322.366154 
L 147.6 322.366154 
" clip-path="url(#pd056ec691a)" style="fill: none; stroke: #000000; stroke-width: 2; stroke-linecap: square"/>
    <path d="M 147.6 363.073846 
L 147.6 363.073846 
" clip-path="url(#pd056ec691a)" style="fill: none; stroke: #000000; stroke-width: 2; stroke-linecap: square"/>
    <path d="M 147.6 349.504615 
L 147.6 376.643077 
" clip-path="url(#pd056ec691a)" style="fill: none; stroke: #000000; stroke-width: 2; stroke-linecap: square"/>
    <path d="M 147.6 349.504615 
L 147.6 349.504615 
" clip-path="url(#pd056ec691a)" style="fill: none; stroke: #000000; stroke-width: 2; stroke-linecap: square"/>
    <path d="M 147.6 376.643077 
L 147.6 376.643077 
" clip-path="url(#pd056ec691a)" style="fill: none; stroke: #000000; stroke-width: 2; stroke-linecap: square"/>
    <path d="M 147.6 417.350769 
L 147.6 417.350769 
" clip-path="url(#pd056ec691a)" style="fill: none; stroke: #000000; stroke-width: 2; stroke-linecap: square"/>
    <path d="M 147.6 403.781538 
L 147.6 430.92 
" clip-path="url(#pd056ec691a)" style="fill: none; stroke: #000000; stroke-width: 2; stroke-linecap: square"/>
    <path d="M 147.6 403.781538 
L 147.6 403.781538 
" clip-path="url(#pd056ec691a)" style="fill: none; stroke: #000000; stroke-width: 2; stroke-linecap: square"/>
    <path d="M 147.6 430.92 
L 147.6 430.92 
" clip-path="url(#pd056ec691a)" style="fill: none; stroke: #000000; stroke-width: 2; stroke-linecap: square"/>
   </g>
   <g id="patch_3">
    <path d="M 36 448.56 
L 259.2 448.56 
" style="fill: none; stroke: #000000; stroke-width: 0.8; stroke-linejoin: miter; stroke-linecap: square"/>
   </g>
   <g id="PathCollection_1">
    <path d="M 249.054545 81.282278 
C 249.893191 81.282278 250.697601 80.94908 251.290613 80.356068 
C 251.883626 79.763056 252.216823 78.958646 252.216823 78.12 
C 252.216823 77.281354 251.883626 76.476944 251.290613 75.883932 
C 250.697601 75.29092 249.893191 74.957722 249.054545 74.957722 
C 248.2159 74.957722 247.41149 75.29092 246.818477 75.883932 
C 246.225465 76.476944 245.892268 77.281354 245.892268 78.12 
C 245.892268 78.958646 246.225465 79.763056 246.818477 80.356068 
C 247.41149 80.94908 248.2159 81.282278 249.054545 81.282278 
z
" clip-path="url(#pd056ec691a)"/>
    <path d="M 249.054545 108.420739 
C 249.893191 108.420739 250.697601 108.087542 251.290613 107.49453 
C 251.883626 106.901517 252.216823 106.097107 252.216823 105.258462 
C 252.216823 104.419816 251.883626 103.615406 251.290613 103.022394 
C 250.697601 102.429381 249.893191 102.096184 249.054545 102.096184 
C 248.2159 102.096184 247.41149 102.429381 246.818477 103.022394 
C 246.225465 103.615406 245.892268 104.419816 245.892268 105.258462 
C 245.892268 106.097107 246.225465 106.901517 246.818477 107.49453 
C 247.41149 108.087542 248.2159 108.420739 249.054545 108.420739 
z
" clip-path="url(#pd056ec691a)"/>
    <path d="M 147.6 135.559201 
C 148.438646 135.559201 149.243056 135.226003 149.836068 134.632991 
C 150.42908 134.039979 150.762278 133.235569 150.762278 132.396923 
C 150.762278 131.558277 150.42908 130.753867 149.836068 130.160855 
C 149.243056 129.567843 148.438646 129.234645 147.6 129.234645 
C 146.761354 129.234645 145.956944 129.567843 145.363932 130.160855 
C 144.77092 130.753867 144.437722 131.558277 144.437722 132.396923 
C 144.437722 133.235569 144.77092 134.039979 145.363932 134.632991 
C 145.956944 135.226003 146.761354 135.559201 147.6 135.559201 
z
" clip-path="url(#pd056ec691a)"/>
    <path d="M 147.6 162.697662 
C 148.438646 162.697662 149.243056 162.364465 149.836068 161.771453 
C 150.42908 161.17844 150.762278 160.37403 150.762278 159.535385 
C 150.762278 158.696739 150.42908 157.892329 149.836068 157.299317 
C 149.243056 156.706304 148.438646 156.373107 147.6 156.373107 
C 146.761354 156.373107 145.956944 156.706304 145.363932 157.299317 
C 144.77092 157.892329 144.437722 158.696739 144.437722 159.535385 
C 144.437722 160.37403 144.77092 161.17844 145.363932 161.771453 
C 145.956944 162.364465 146.761354 162.697662 147.6 162.697662 
z
" clip-path="url(#pd056ec691a)"/>
    <path d="M 249.054545 189.836124 
C 249.893191 189.836124 250.697601 189.502926 251.290613 188.909914 
C 251.883626 188.316902 252.216823 187.512492 252.216823 186.673846 
C 252.216823 185.8352 251.883626 185.03079 251.290613 184.437778 
C 250.697601 183.844766 249.893191 183.511568 249.054545 183.511568 
C 248.2159 183.511568 247.41149 183.844766 246.818477 184.437778 
C 246.225465 185.03079 245.892268 185.8352 245.892268 186.673846 
C 245.892268 187.512492 246.225465 188.316902 246.818477 188.909914 
C 247.41149 189.502926 248.2159 189.836124 249.054545 189.836124 
z
" clip-path="url(#pd056ec691a)"/>
    <path d="M 147.6 216.974585 
C 148.438646 216.974585 149.243056 216.641388 149.836068 216.048376 
C 150.42908 215.455364 150.762278 214.650954 150.762278 213.812308 
C 150.762278 212.973662 150.42908 212.169252 149.836068 211.57624 
C 149.243056 210.983228 148.438646 210.65003 147.6 210.65003 
C 146.761354 210.65003 145.956944 210.983228 145.363932 211.57624 
C 144.77092 212.169252 144.437722 212.973662 144.437722 213.812308 
C 144.437722 214.650954 144.77092 215.455364 145.363932 216.048376 
C 145.956944 216.641388 146.761354 216.974585 147.6 216.974585 
z
" clip-path="url(#pd056ec691a)"/>
    <path d="M 249.054545 244.113047 
C 249.893191 244.113047 250.697601 243.779849 251.290613 243.186837 
C 251.883626 242.593825 252.216823 241.789415 252.216823 240.950769 
C 252.216823 240.112123 251.883626 239.307713 251.290613 238.714701 
C 250.697601 238.121689 249.893191 237.788492 249.054545 237.788492 
C 248.2159 237.788492 247.41149 238.121689 246.818477 238.714701 
C 246.225465 239.307713 245.892268 240.112123 245.892268 240.950769 
C 245.892268 241.789415 246.225465 242.593825 246.818477 243.186837 
C 247.41149 243.779849 248.2159 244.113047 249.054545 244.113047 
z
" clip-path="url(#pd056ec691a)"/>
    <path d="M 249.054545 271.251508 
C 249.893191 271.251508 250.697601 270.918311 251.290613 270.325299 
C 251.883626 269.732287 252.216823 268.927877 252.216823 268.089231 
C 252.216823 267.250585 251.883626 266.446175 251.290613 265.853163 
C 250.697601 265.260151 249.893191 264.926953 249.054545 264.926953 
C 248.2159 264.926953 247.41149 265.260151 246.818477 265.853163 
C 246.225465 266.446175 245.892268 267.250585 245.892268 268.089231 
C 245.892268 268.927877 246.225465 269.732287 246.818477 270.325299 
C 247.41149 270.918311 248.2159 271.251508 249.054545 271.251508 
z
" clip-path="url(#pd056ec691a)"/>
    <path d="M 147.6 298.38997 
C 148.438646 298.38997 149.243056 298.056772 149.836068 297.46376 
C 150.42908 296.870748 150.762278 296.066338 150.762278 295.227692 
C 150.762278 294.389046 150.42908 293.584636 149.836068 292.991624 
C 149.243056 292.398612 148.438646 292.065415 147.6 292.065415 
C 146.761354 292.065415 145.956944 292.398612 145.363932 292.991624 
C 144.77092 293.584636 144.437722 294.389046 144.437722 295.227692 
C 144.437722 296.066338 144.77092 296.870748 145.363932 297.46376 
C 145.956944 298.056772 146.761354 298.38997 147.6 298.38997 
z
" clip-path="url(#pd056ec691a)"/>
    <path d="M 147.6 325.528432 
C 148.438646 325.528432 149.243056 325.195234 149.836068 324.602222 
C 150.42908 324.00921 150.762278 323.2048 150.762278 322.366154 
C 150.762278 321.527508 150.42908 320.723098 149.836068 320.130086 
C 149.243056 319.537074 148.438646 319.203876 147.6 319.203876 
C 146.761354 319.203876 145.956944 319.537074 145.363932 320.130086 
C 144.77092 320.723098 144.437722 321.527508 144.437722 322.366154 
C 144.437722 323.2048 144.77092 324.00921 145.363932 324.602222 
C 145.956944 325.195234 146.761354 325.528432 147.6 325.528432 
z
" clip-path="url(#pd056ec691a)"/>
    <path d="M 147.6 352.666893 
C 148.438646 352.666893 149.243056 352.333696 149.836068 351.740683 
C 150.42908 351.147671 150.762278 350.343261 150.762278 349.504615 
C 150.762278 348.66597 150.42908 347.86156 149.836068 347.268547 
C 149.243056 346.675535 148.438646 346.342338 147.6 346.342338 
C 146.761354 346.342338 145.956944 346.675535 145.363932 347.268547 
C 144.77092 347.86156 144.437722 348.66597 144.437722 349.504615 
C 144.437722 350.343261 144.77092 351.147671 145.363932 351.740683 
C 145.956944 352.333696 146.761354 352.666893 147.6 352.666893 
z
" clip-path="url(#pd056ec691a)"/>
    <path d="M 147.6 379.805355 
C 148.438646 379.805355 149.243056 379.472157 149.836068 378.879145 
C 150.42908 378.286133 150.762278 377.481723 150.762278 376.643077 
C 150.762278 375.804431 150.42908 375.000021 149.836068 374.407009 
C 149.243056 373.813997 148.438646 373.480799 147.6 373.480799 
C 146.761354 373.480799 145.956944 373.813997 145.363932 374.407009 
C 144.77092 375.000021 144.437722 375.804431 144.437722 376.643077 
C 144.437722 377.481723 144.77092 378.286133 145.363932 378.879145 
C 145.956944 379.472157 146.761354 379.805355 147.6 379.805355 
z
" clip-path="url(#pd056ec691a)"/>
    <path d="M 147.6 406.943816 
C 148.438646 406.943816 149.243056 406.610619 149.836068 406.017606 
C 150.42908 405.424594 150.762278 404.620184 150.762278 403.781538 
C 150.762278 402.942893 150.42908 402.138483 149.836068 401.54547 
C 149.243056 400.952458 148.438646 400.619261 147.6 400.619261 
C 146.761354 400.619261 145.956944 400.952458 145.363932 401.54547 
C 144.77092 402.138483 144.437722 402.942893 144.437722 403.781538 
C 144.437722 404.620184 144.77092 405.424594 145.363932 406.017606 
C 145.956944 406.610619 146.761354 406.943816 147.6 406.943816 
z
" clip-path="url(#pd056ec691a)"/>
    <path d="M 147.6 434.082278 
C 148.438646 434.082278 149.243056 433.74908 149.836068 433.156068 
C 150.42908 432.563056 150.762278 431.758646 150.762278 430.92 
C 150.762278 430.081354 150.42908 429.276944 149.836068 428.683932 
C 149.243056 428.09092 148.438646 427.757722 147.6 427.757722 
C 146.761354 427.757722 145.956944 428.09092 145.363932 428.683932 
C 144.77092 429.276944 144.437722 430.081354 144.437722 430.92 
C 144.437722 431.758646 144.77092 432.563056 145.363932 433.156068 
C 145.956944 433.74908 146.761354 434.082278 147.6 434.082278 
z
" clip-path="url(#pd056ec691a)"/>
   </g>
   <g id="PathCollection_2">
    <path d="M 249.054545 80.356068 
C 249.647558 80.356068 250.216361 80.120462 250.635684 79.701139 
C 251.055007 79.281816 251.290613 78.713012 251.290613 78.12 
C 251.290613 77.526988 251.055007 76.958184 250.635684 76.538861 
C 250.216361 76.119538 249.647558 75.883932 249.054545 75.883932 
C 248.461533 75.883932 247.89273 76.119538 247.473407 76.538861 
C 247.054084 76.958184 246.818477 77.526988 246.818477 78.12 
C 246.818477 78.713012 247.054084 79.281816 247.473407 79.701139 
C 247.89273 80.120462 248.461533 80.356068 249.054545 80.356068 
z
" clip-path="url(#pd056ec691a)" style="fill: #bebada"/>
    <path d="M 249.054545 107.49453 
C 249.647558 107.49453 250.216361 107.258923 250.635684 106.8396 
C 251.055007 106.420277 251.290613 105.851474 251.290613 105.258462 
C 251.290613 104.665449 251.055007 104.096646 250.635684 103.677323 
C 250.216361 103.258 249.647558 103.022394 249.054545 103.022394 
C 248.461533 103.022394 247.89273 103.258 247.473407 103.677323 
C 247.054084 104.096646 246.818477 104.665449 246.818477 105.258462 
C 246.818477 105.851474 247.054084 106.420277 247.473407 106.8396 
C 247.89273 107.258923 248.461533 107.49453 249.054545 107.49453 
z
" clip-path="url(#pd056ec691a)" style="fill: #bebada"/>
    <path d="M 147.6 134.632991 
C 148.193012 134.632991 148.761816 134.397385 149.181139 133.978062 
C 149.600462 133.558739 149.836068 132.989935 149.836068 132.396923 
C 149.836068 131.803911 149.600462 131.235107 149.181139 130.815784 
C 148.761816 130.396461 148.193012 130.160855 147.6 130.160855 
C 147.006988 130.160855 146.438184 130.396461 146.018861 130.815784 
C 145.599538 131.235107 145.363932 131.803911 145.363932 132.396923 
C 145.363932 132.989935 145.599538 133.558739 146.018861 133.978062 
C 146.438184 134.397385 147.006988 134.632991 147.6 134.632991 
z
" clip-path="url(#pd056ec691a)" style="fill: #fb8072"/>
    <path d="M 147.6 161.771453 
C 148.193012 161.771453 148.761816 161.535846 149.181139 161.116523 
C 149.600462 160.697201 149.836068 160.128397 149.836068 159.535385 
C 149.836068 158.942372 149.600462 158.373569 149.181139 157.954246 
C 148.761816 157.534923 148.193012 157.299317 147.6 157.299317 
C 147.006988 157.299317 146.438184 157.534923 146.018861 157.954246 
C 145.599538 158.373569 145.363932 158.942372 145.363932 159.535385 
C 145.363932 160.128397 145.599538 160.697201 146.018861 161.116523 
C 146.438184 161.535846 147.006988 161.771453 147.6 161.771453 
z
" clip-path="url(#pd056ec691a)" style="fill: #bebada"/>
    <path d="M 249.054545 188.909914 
C 249.647558 188.909914 250.216361 188.674308 250.635684 188.254985 
C 251.055007 187.835662 251.290613 187.266858 251.290613 186.673846 
C 251.290613 186.080834 251.055007 185.51203 250.635684 185.092707 
C 250.216361 184.673384 249.647558 184.437778 249.054545 184.437778 
C 248.461533 184.437778 247.89273 184.673384 247.473407 185.092707 
C 247.054084 185.51203 246.818477 186.080834 246.818477 186.673846 
C 246.818477 187.266858 247.054084 187.835662 247.473407 188.254985 
C 247.89273 188.674308 248.461533 188.909914 249.054545 188.909914 
z
" clip-path="url(#pd056ec691a)" style="fill: #bebada"/>
    <path d="M 147.6 216.048376 
C 148.193012 216.048376 148.761816 215.812769 149.181139 215.393447 
C 149.600462 214.974124 149.836068 214.40532 149.836068 213.812308 
C 149.836068 213.219296 149.600462 212.650492 149.181139 212.231169 
C 148.761816 211.811846 148.193012 211.57624 147.6 211.57624 
C 147.006988 211.57624 146.438184 211.811846 146.018861 212.231169 
C 145.599538 212.650492 145.363932 213.219296 145.363932 213.812308 
C 145.363932 214.40532 145.599538 214.974124 146.018861 215.393447 
C 146.438184 215.812769 147.006988 216.048376 147.6 216.048376 
z
" clip-path="url(#pd056ec691a)" style="fill: #bebada"/>
    <path d="M 249.054545 243.186837 
C 249.647558 243.186837 250.216361 242.951231 250.635684 242.531908 
C 251.055007 242.112585 251.290613 241.543781 251.290613 240.950769 
C 251.290613 240.357757 251.055007 239.788953 250.635684 239.36963 
C 250.216361 238.950307 249.647558 238.714701 249.054545 238.714701 
C 248.461533 238.714701 247.89273 238.950307 247.473407 239.36963 
C 247.054084 239.788953 246.818477 240.357757 246.818477 240.950769 
C 246.818477 241.543781 247.054084 242.112585 247.473407 242.531908 
C 247.89273 242.951231 248.461533 243.186837 249.054545 243.186837 
z
" clip-path="url(#pd056ec691a)" style="fill: #fb8072"/>
    <path d="M 249.054545 270.325299 
C 249.647558 270.325299 250.216361 270.089693 250.635684 269.67037 
C 251.055007 269.251047 251.290613 268.682243 251.290613 268.089231 
C 251.290613 267.496219 251.055007 266.927415 250.635684 266.508092 
C 250.216361 266.088769 249.647558 265.853163 249.054545 265.853163 
C 248.461533 265.853163 247.89273 266.088769 247.473407 266.508092 
C 247.054084 266.927415 246.818477 267.496219 246.818477 268.089231 
C 246.818477 268.682243 247.054084 269.251047 247.473407 269.67037 
C 247.89273 270.089693 248.461533 270.325299 249.054545 270.325299 
z
" clip-path="url(#pd056ec691a)" style="fill: #fb8072"/>
    <path d="M 147.6 297.46376 
C 148.193012 297.46376 148.761816 297.228154 149.181139 296.808831 
C 149.600462 296.389508 149.836068 295.820704 149.836068 295.227692 
C 149.836068 294.63468 149.600462 294.065876 149.181139 293.646553 
C 148.761816 293.227231 148.193012 292.991624 147.6 292.991624 
C 147.006988 292.991624 146.438184 293.227231 146.018861 293.646553 
C 145.599538 294.065876 145.363932 294.63468 145.363932 295.227692 
C 145.363932 295.820704 145.599538 296.389508 146.018861 296.808831 
C 146.438184 297.228154 147.006988 297.46376 147.6 297.46376 
z
" clip-path="url(#pd056ec691a)" style="fill: #bebada"/>
    <path d="M 147.6 324.602222 
C 148.193012 324.602222 148.761816 324.366616 149.181139 323.947293 
C 149.600462 323.52797 149.836068 322.959166 149.836068 322.366154 
C 149.836068 321.773142 149.600462 321.204338 149.181139 320.785015 
C 148.761816 320.365692 148.193012 320.130086 147.6 320.130086 
C 147.006988 320.130086 146.438184 320.365692 146.018861 320.785015 
C 145.599538 321.204338 145.363932 321.773142 145.363932 322.366154 
C 145.363932 322.959166 145.599538 323.52797 146.018861 323.947293 
C 146.438184 324.366616 147.006988 324.602222 147.6 324.602222 
z
" clip-path="url(#pd056ec691a)" style="fill: #bebada"/>
    <path d="M 147.6 351.740683 
C 148.193012 351.740683 148.761816 351.505077 149.181139 351.085754 
C 149.600462 350.666431 149.836068 350.097628 149.836068 349.504615 
C 149.836068 348.911603 149.600462 348.342799 149.181139 347.923477 
C 148.761816 347.504154 148.193012 347.268547 147.6 347.268547 
C 147.006988 347.268547 146.438184 347.504154 146.018861 347.923477 
C 145.599538 348.342799 145.363932 348.911603 145.363932 349.504615 
C 145.363932 350.097628 145.599538 350.666431 146.018861 351.085754 
C 146.438184 351.505077 147.006988 351.740683 147.6 351.740683 
z
" clip-path="url(#pd056ec691a)" style="fill: #bebada"/>
    <path d="M 147.6 378.879145 
C 148.193012 378.879145 148.761816 378.643539 149.181139 378.224216 
C 149.600462 377.804893 149.836068 377.236089 149.836068 376.643077 
C 149.836068 376.050065 149.600462 375.481261 149.181139 375.061938 
C 148.761816 374.642615 148.193012 374.407009 147.6 374.407009 
C 147.006988 374.407009 146.438184 374.642615 146.018861 375.061938 
C 145.599538 375.481261 145.363932 376.050065 145.363932 376.643077 
C 145.363932 377.236089 145.599538 377.804893 146.018861 378.224216 
C 146.438184 378.643539 147.006988 378.879145 147.6 378.879145 
z
" clip-path="url(#pd056ec691a)" style="fill: #bebada"/>
    <path d="M 147.6 406.017606 
C 148.193012 406.017606 148.761816 405.782 149.181139 405.362677 
C 149.600462 404.943354 149.836068 404.374551 149.836068 403.781538 
C 149.836068 403.188526 149.600462 402.619723 149.181139 402.2004 
C 148.761816 401.781077 148.193012 401.54547 147.6 401.54547 
C 147.006988 401.54547 146.438184 401.781077 146.018861 402.2004 
C 145.599538 402.619723 145.363932 403.188526 145.363932 403.781538 
C 145.363932 404.374551 145.599538 404.943354 146.018861 405.362677 
C 146.438184 405.782 147.006988 406.017606 147.6 406.017606 
z
" clip-path="url(#pd056ec691a)" style="fill: #fb8072"/>
    <path d="M 147.6 433.156068 
C 148.193012 433.156068 148.761816 432.920462 149.181139 432.501139 
C 149.600462 432.081816 149.836068 431.513012 149.836068 430.92 
C 149.836068 430.326988 149.600462 429.758184 149.181139 429.338861 
C 148.761816 428.919538 148.193012 428.683932 147.6 428.683932 
C 147.006988 428.683932 146.438184 428.919538 146.018861 429.338861 
C 145.599538 429.758184 145.363932 430.326988 145.363932 430.92 
C 145.363932 431.513012 145.599538 432.081816 146.018861 432.501139 
C 146.438184 432.920462 147.006988 433.156068 147.6 433.156068 
z
" clip-path="url(#pd056ec691a)" style="fill: #bebada"/>
   </g>
  </g>
 </g>
 <defs>
  <clipPath id="pd056ec691a">
   <rect x="36" y="60.48" width="223.2" height="388.08"/>
  </clipPath>
 </defs>
</svg>
