<?xml version="1.0" encoding="utf-8" standalone="no"?>
<!DOCTYPE svg PUBLIC "-//W3C//DTD SVG 1.1//EN"
  "http://www.w3.org/Graphics/SVG/1.1/DTD/svg11.dtd">
<svg xmlns:xlink="http://www.w3.org/1999/xlink" width="288pt" height="468pt" viewBox="0 0 288 468" xmlns="http://www.w3.org/2000/svg" version="1.1">
 <metadata>
  <rdf:RDF xmlns:dc="http://purl.org/dc/elements/1.1/" xmlns:cc="http://creativecommons.org/ns#" xmlns:rdf="http://www.w3.org/1999/02/22-rdf-syntax-ns#">
   <cc:Work>
    <dc:type rdf:resource="http://purl.org/dc/dcmitype/StillImage"/>
    <dc:date>2026-04-02T15:32:28.456637</dc:date>
    <dc:format>image/svg+xml</dc:format>
    <dc:creator>
     <cc:Agent>
      <dc:title>Matplotlib v3.10.8, https://matplotlib.org/</dc:title>
     </cc:Agent>
    </dc:creator>
   </cc:Work>
  </rdf:RDF>
 </metadata>
 <defs>
  <style type="text/css">*{stroke-linejoin: round; stroke-linecap: butt}</style>
 </defs>
 <g id="figure_1">
  <g id="patch_1">
   <path d="M 0 468 
L 288 468 
L 288 0 
L 0 0 
z
" style="fill: #ffffff"/>
  </g>
  <g id="axes_1">
   <g id="patch_2">
    <path d="M 3.00024 434.64351 
L 284.99976 434.64351 
L 284.99976 3.00024 
L 3.00024 3.00024 
z
" style="fill: #ffffff"/>
   </g>
   <g id="matplotlib.axis_1">
    <g id="xtick_1">
     <g id="line2d_1">
      <defs>
       <path id="mc302bddc61" d="M 0 0 
L 0 3.5 
" style="stroke: #000000; stroke-width: 0.8"/>
      </defs>
      <g>
       <use xlink:href="#mc302bddc61" x="15.8184" y="434.64351" style="stroke: #000000; stroke-width: 0.8"/>
      </g>
     </g>
     <g id="text_1">
      <!-- −1.0 -->
      <g transform="translate(3.676994 449.241947) scale(0.1 -0.1)">
       <defs>
        <path id="DejaVuSans-2212" d="M 678 2272 
L 4684 2272 
L 4684 1741 
L 678 1741 
L 678 2272 
z
" transform="scale(0.015625)"/>
        <path id="DejaVuSans-31" d="M 794 531 
L 1825 531 
L 1825 4091 
L 703 3866 
L 703 4441 
L 1819 4666 
L 2450 4666 
L 2450 531 
L 3481 531 
L 3481 0 
L 794 0 
L 794 531 
z
" transform="scale(0.015625)"/>
        <path id="DejaVuSans-2e" d="M 684 794 
L 1344 794 
L 1344 0 
L 684 0 
L 684 794 
z
" transform="scale(0.015625)"/>
        <path id="DejaVuSans-30" d="M 2034 4250 
Q 1547 4250 1301 3770 
Q 1056 3291 1056 2328 
Q 1056 1369 1301 889 
Q 1547 409 2034 409 
Q 2525 409 2770 889 
Q 3016 1369 3016 2328 
Q 3016 3291 2770 3770 
Q 2525 4250 2034 4250 
z
M 2034 4750 
Q 2819 4750 3233 4129 
Q 3647 3509 3647 2328 
Q 3647 1150 3233 529 
Q 2819 -91 2034 -91 
Q 1250 -91 836 529 
Q 422 1150 422 2328 
Q 422 3509 836 4129 
Q 1250 4750 2034 4750 
z
" transform="scale(0.015625)"/>
       </defs>
       <use xlink:href="#DejaVuSans-2212"/>
       <use xlink:href="#DejaVuSans-31" transform="translate(83.789062 0)"/>
       <use xlink:href="#DejaVuSans-2e" transform="translate(147.412109 0)"/>
       <use xlink:href="#DejaVuSans-30" transform="translate(179.199219 0)"/>
      </g>
     </g>
    </g>
    <g id="xtick_2">
     <g id="line2d_2">
      <g>
       <use xlink:href="#mc302bddc61" x="58.5456" y="434.64351" style="stroke: #000000; stroke-width: 0.8"/>
      </g>
     </g>
     <g id="text_2">
      <!-- −0.5 -->
      <g transform="translate(46.404194 449.241947) scale(0.1 -0.1)">
       <defs>
        <path id="DejaVuSans-35" d="M 691 4666 
L 3169 4666 
L 3169 4134 
L 1269 4134 
L 1269 2991 
Q 1406 3038 1543 3061 
Q 1681 3084 1819 3084 
Q 2600 3084 3056 2656 
Q 3513 2228 3513 1497 
Q 3513 744 3044 326 
Q 2575 -91 1722 -91 
Q 1428 -91 1123 -41 
Q 819 9 494 109 
L 494 744 
Q 775 591 1075 516 
Q 1375 441 1709 441 
Q 2250 441 2565 725 
Q 2881 1009 2881 1497 
Q 2881 1984 2565 2268 
Q 2250 2553 1709 2553 
Q 1456 2553 1204 2497 
Q 953 2441 691 2322 
L 691 4666 
z
" transform="scale(0.015625)"/>
       </defs>
       <use xlink:href="#DejaVuSans-2212"/>
       <use xlink:href="#DejaVuSans-30" transform="translate(83.789062 0)"/>
       <use xlink:href="#DejaVuSans-2e" transform="translate(147.412109 0)"/>
       <use xlink:href="#DejaVuSans-35" transform="translate(179.199219 0)"/>
      </g>
     </g>
    </g>
    <g id="xtick_3">
     <g id="line2d_3">
      <g>
       <use xlink:href="#mc302bddc61" x="101.2728" y="434.64351" style="stroke: #000000; stroke-width: 0.8"/>
      </g>
     </g>
     <g id="text_3">
      <!-- 0.0 -->
      <g transform="translate(93.321238 449.241947) scale(0.1 -0.1)">
       <use xlink:href="#DejaVuSans-30"/>
       <use xlink:href="#DejaVuSans-2e" transform="translate(63.623047 0)"/>
       <use xlink:href="#DejaVuSans-30" transform="translate(95.410156 0)"/>
      </g>
     </g>
    </g>
    <g id="xtick_4">
     <g id="line2d_4">
      <g>
       <use xlink:href="#mc302bddc61" x="144" y="434.64351" style="stroke: #000000; stroke-width: 0.8"/>
      </g>
     </g>
     <g id="text_4">
      <!-- 0.5 -->
      <g transform="translate(136.048438 449.241947) scale(0.1 -0.1)">
       <use xlink:href="#DejaVuSans-30"/>
       <use xlink:href="#DejaVuSans-2e" transform="translate(63.623047 0)"/>
       <use xlink:href="#DejaVuSans-35" transform="translate(95.410156 0)"/>
      </g>
     </g>
    </g>
    <g id="xtick_5">
     <g id="line2d_5">
      <g>
       <use xlink:href="#mc302bddc61" x="186.7272" y="434.64351" style="stroke: #000000; stroke-width: 0.8"/>
      </g>
     </g>
     <g id="text_5">
      <!-- 1.0 -->
      <g transform="translate(178.775638 449.241947) scale(0.1 -0.1)">
       <use xlink:href="#DejaVuSans-31"/>
       <use xlink:href="#DejaVuSans-2e" transform="translate(63.623047 0)"/>
       <use xlink:href="#DejaVuSans-30" transform="translate(95.410156 0)"/>
      </g>
     </g>
    </g>
    <g id="xtick_6">
     <g id="line2d_6">
      <g>
       <use xlink:href="#mc302bddc61" x="229.4544" y="434.64351" style="stroke: #000000; stroke-width: 0.8"/>
      </g>
     </g>
     <g id="text_6">
      <!-- 1.5 -->
      <g transform="translate(221.502838 449.241947) scale(0.1 -0.1)">
       <use xlink:href="#DejaVuSans-31"/>
       <use xlink:href="#DejaVuSans-2e" transform="translate(63.623047 0)"/>
       <use xlink:href="#DejaVuSans-35" transform="translate(95.410156 0)"/>
      </g>
     </g>
    </g>
    <g id="xtick_7">
     <g id="line2d_7">
      <g>
       <use xlink:href="#mc302bddc61" x="272.1816" y="434.64351" style="stroke: #000000; stroke-width: 0.8"/>
      </g>
     </g>
     <g id="text_7">
      <!-- 2.0 -->
      <g transform="translate(264.230037 449.241947) scale(0.1 -0.1)">
       <defs>
        <path id="DejaVuSans-32" d="M 1228 531 
L 3431 531 
L 3431 0 
L 469 0 
L 469 531 
Q 828 903 1448 1529 
Q 2069 2156 2228 2338 
Q 2531 2678 2651 2914 
Q 2772 3150 2772 3378 
Q 2772 3750 2511 3984 
Q 2250 4219 1831 4219 
Q 1534 4219 1204 4116 
Q 875 4013 500 3803 
L 500 4441 
Q 881 4594 1212 4672 
Q 1544 4750 1819 4750 
Q 2544 4750 2975 4387 
Q 3406 4025 3406 3419 
Q 3406 3131 3298 2873 
Q 3191 2616 2906 2266 
Q 2828 2175 2409 1742 
Q 1991 1309 1228 531 
z
" transform="scale(0.015625)"/>
       </defs>
       <use xlink:href="#DejaVuSans-32"/>
       <use xlink:href="#DejaVuSans-2e" transform="translate(63.623047 0)"/>
       <use xlink:href="#DejaVuSans-30" transform="translate(95.410156 0)"/>
      </g>
     </g>
    </g>
    <g id="text_8">
     <!-- Mutations Compared to Root -->
     <g transform="translate(72.342969 462.920073) scale(0.1 -0.1)">
      <defs>
       <path id="DejaVuSans-4d" d="M 628 4666 
L 1569 4666 
L 2759 1491 
L 3956 4666 
L 4897 4666 
L 4897 0 
L 4281 0 
L 4281 4097 
L 3078 897 
L 2444 897 
L 1241 4097 
L 1241 0 
L 628 0 
L 628 4666 
z
" transform="scale(0.015625)"/>
       <path id="DejaVuSans-75" d="M 544 1381 
L 544 3500 
L 1119 3500 
L 1119 1403 
Q 1119 906 1312 657 
Q 1506 409 1894 409 
Q 2359 409 2629 706 
Q 2900 1003 2900 1516 
L 2900 3500 
L 3475 3500 
L 3475 0 
L 2900 0 
L 2900 538 
Q 2691 219 2414 64 
Q 2138 -91 1772 -91 
Q 1169 -91 856 284 
Q 544 659 544 1381 
z
M 1991 3584 
L 1991 3584 
z
" transform="scale(0.015625)"/>
       <path id="DejaVuSans-74" d="M 1172 4494 
L 1172 3500 
L 2356 3500 
L 2356 3053 
L 1172 3053 
L 1172 1153 
Q 1172 725 1289 603 
Q 1406 481 1766 481 
L 2356 481 
L 2356 0 
L 1766 0 
Q 1100 0 847 248 
Q 594 497 594 1153 
L 594 3053 
L 172 3053 
L 172 3500 
L 594 3500 
L 594 4494 
L 1172 4494 
z
" transform="scale(0.015625)"/>
       <path id="DejaVuSans-61" d="M 2194 1759 
Q 1497 1759 1228 1600 
Q 959 1441 959 1056 
Q 959 750 1161 570 
Q 1363 391 1709 391 
Q 2188 391 2477 730 
Q 2766 1069 2766 1631 
L 2766 1759 
L 2194 1759 
z
M 3341 1997 
L 3341 0 
L 2766 0 
L 2766 531 
Q 2569 213 2275 61 
Q 1981 -91 1556 -91 
Q 1019 -91 701 211 
Q 384 513 384 1019 
Q 384 1609 779 1909 
Q 1175 2209 1959 2209 
L 2766 2209 
L 2766 2266 
Q 2766 2663 2505 2880 
Q 2244 3097 1772 3097 
Q 1472 3097 1187 3025 
Q 903 2953 641 2809 
L 641 3341 
Q 956 3463 1253 3523 
Q 1550 3584 1831 3584 
Q 2591 3584 2966 3190 
Q 3341 2797 3341 1997 
z
" transform="scale(0.015625)"/>
       <path id="DejaVuSans-69" d="M 603 3500 
L 1178 3500 
L 1178 0 
L 603 0 
L 603 3500 
z
M 603 4863 
L 1178 4863 
L 1178 4134 
L 603 4134 
L 603 4863 
z
" transform="scale(0.015625)"/>
       <path id="DejaVuSans-6f" d="M 1959 3097 
Q 1497 3097 1228 2736 
Q 959 2375 959 1747 
Q 959 1119 1226 758 
Q 1494 397 1959 397 
Q 2419 397 2687 759 
Q 2956 1122 2956 1747 
Q 2956 2369 2687 2733 
Q 2419 3097 1959 3097 
z
M 1959 3584 
Q 2709 3584 3137 3096 
Q 3566 2609 3566 1747 
Q 3566 888 3137 398 
Q 2709 -91 1959 -91 
Q 1206 -91 779 398 
Q 353 888 353 1747 
Q 353 2609 779 3096 
Q 1206 3584 1959 3584 
z
" transform="scale(0.015625)"/>
       <path id="DejaVuSans-6e" d="M 3513 2113 
L 3513 0 
L 2938 0 
L 2938 2094 
Q 2938 2591 2744 2837 
Q 2550 3084 2163 3084 
Q 1697 3084 1428 2787 
Q 1159 2491 1159 1978 
L 1159 0 
L 581 0 
L 581 3500 
L 1159 3500 
L 1159 2956 
Q 1366 3272 1645 3428 
Q 1925 3584 2291 3584 
Q 2894 3584 3203 3211 
Q 3513 2838 3513 2113 
z
" transform="scale(0.015625)"/>
       <path id="DejaVuSans-73" d="M 2834 3397 
L 2834 2853 
Q 2591 2978 2328 3040 
Q 2066 3103 1784 3103 
Q 1356 3103 1142 2972 
Q 928 2841 928 2578 
Q 928 2378 1081 2264 
Q 1234 2150 1697 2047 
L 1894 2003 
Q 2506 1872 2764 1633 
Q 3022 1394 3022 966 
Q 3022 478 2636 193 
Q 2250 -91 1575 -91 
Q 1294 -91 989 -36 
Q 684 19 347 128 
L 347 722 
Q 666 556 975 473 
Q 1284 391 1588 391 
Q 1994 391 2212 530 
Q 2431 669 2431 922 
Q 2431 1156 2273 1281 
Q 2116 1406 1581 1522 
L 1381 1569 
Q 847 1681 609 1914 
Q 372 2147 372 2553 
Q 372 3047 722 3315 
Q 1072 3584 1716 3584 
Q 2034 3584 2315 3537 
Q 2597 3491 2834 3397 
z
" transform="scale(0.015625)"/>
       <path id="DejaVuSans-20" transform="scale(0.015625)"/>
       <path id="DejaVuSans-43" d="M 4122 4306 
L 4122 3641 
Q 3803 3938 3442 4084 
Q 3081 4231 2675 4231 
Q 1875 4231 1450 3742 
Q 1025 3253 1025 2328 
Q 1025 1406 1450 917 
Q 1875 428 2675 428 
Q 3081 428 3442 575 
Q 3803 722 4122 1019 
L 4122 359 
Q 3791 134 3420 21 
Q 3050 -91 2638 -91 
Q 1578 -91 968 557 
Q 359 1206 359 2328 
Q 359 3453 968 4101 
Q 1578 4750 2638 4750 
Q 3056 4750 3426 4639 
Q 3797 4528 4122 4306 
z
" transform="scale(0.015625)"/>
       <path id="DejaVuSans-6d" d="M 3328 2828 
Q 3544 3216 3844 3400 
Q 4144 3584 4550 3584 
Q 5097 3584 5394 3201 
Q 5691 2819 5691 2113 
L 5691 0 
L 5113 0 
L 5113 2094 
Q 5113 2597 4934 2840 
Q 4756 3084 4391 3084 
Q 3944 3084 3684 2787 
Q 3425 2491 3425 1978 
L 3425 0 
L 2847 0 
L 2847 2094 
Q 2847 2600 2669 2842 
Q 2491 3084 2119 3084 
Q 1678 3084 1418 2786 
Q 1159 2488 1159 1978 
L 1159 0 
L 581 0 
L 581 3500 
L 1159 3500 
L 1159 2956 
Q 1356 3278 1631 3431 
Q 1906 3584 2284 3584 
Q 2666 3584 2933 3390 
Q 3200 3197 3328 2828 
z
" transform="scale(0.015625)"/>
       <path id="DejaVuSans-70" d="M 1159 525 
L 1159 -1331 
L 581 -1331 
L 581 3500 
L 1159 3500 
L 1159 2969 
Q 1341 3281 1617 3432 
Q 1894 3584 2278 3584 
Q 2916 3584 3314 3078 
Q 3713 2572 3713 1747 
Q 3713 922 3314 415 
Q 2916 -91 2278 -91 
Q 1894 -91 1617 61 
Q 1341 213 1159 525 
z
M 3116 1747 
Q 3116 2381 2855 2742 
Q 2594 3103 2138 3103 
Q 1681 3103 1420 2742 
Q 1159 2381 1159 1747 
Q 1159 1113 1420 752 
Q 1681 391 2138 391 
Q 2594 391 2855 752 
Q 3116 1113 3116 1747 
z
" transform="scale(0.015625)"/>
       <path id="DejaVuSans-72" d="M 2631 2963 
Q 2534 3019 2420 3045 
Q 2306 3072 2169 3072 
Q 1681 3072 1420 2755 
Q 1159 2438 1159 1844 
L 1159 0 
L 581 0 
L 581 3500 
L 1159 3500 
L 1159 2956 
Q 1341 3275 1631 3429 
Q 1922 3584 2338 3584 
Q 2397 3584 2469 3576 
Q 2541 3569 2628 3553 
L 2631 2963 
z
" transform="scale(0.015625)"/>
       <path id="DejaVuSans-65" d="M 3597 1894 
L 3597 1613 
L 953 1613 
Q 991 1019 1311 708 
Q 1631 397 2203 397 
Q 2534 397 2845 478 
Q 3156 559 3463 722 
L 3463 178 
Q 3153 47 2828 -22 
Q 2503 -91 2169 -91 
Q 1331 -91 842 396 
Q 353 884 353 1716 
Q 353 2575 817 3079 
Q 1281 3584 2069 3584 
Q 2775 3584 3186 3129 
Q 3597 2675 3597 1894 
z
M 3022 2063 
Q 3016 2534 2758 2815 
Q 2500 3097 2075 3097 
Q 1594 3097 1305 2825 
Q 1016 2553 972 2059 
L 3022 2063 
z
" transform="scale(0.015625)"/>
       <path id="DejaVuSans-64" d="M 2906 2969 
L 2906 4863 
L 3481 4863 
L 3481 0 
L 2906 0 
L 2906 525 
Q 2725 213 2448 61 
Q 2172 -91 1784 -91 
Q 1150 -91 751 415 
Q 353 922 353 1747 
Q 353 2572 751 3078 
Q 1150 3584 1784 3584 
Q 2172 3584 2448 3432 
Q 2725 3281 2906 2969 
z
M 947 1747 
Q 947 1113 1208 752 
Q 1469 391 1925 391 
Q 2381 391 2643 752 
Q 2906 1113 2906 1747 
Q 2906 2381 2643 2742 
Q 2381 3103 1925 3103 
Q 1469 3103 1208 2742 
Q 947 2381 947 1747 
z
" transform="scale(0.015625)"/>
       <path id="DejaVuSans-52" d="M 2841 2188 
Q 3044 2119 3236 1894 
Q 3428 1669 3622 1275 
L 4263 0 
L 3584 0 
L 2988 1197 
Q 2756 1666 2539 1819 
Q 2322 1972 1947 1972 
L 1259 1972 
L 1259 0 
L 628 0 
L 628 4666 
L 2053 4666 
Q 2853 4666 3247 4331 
Q 3641 3997 3641 3322 
Q 3641 2881 3436 2590 
Q 3231 2300 2841 2188 
z
M 1259 4147 
L 1259 2491 
L 2053 2491 
Q 2509 2491 2742 2702 
Q 2975 2913 2975 3322 
Q 2975 3731 2742 3939 
Q 2509 4147 2053 4147 
L 1259 4147 
z
" transform="scale(0.015625)"/>
      </defs>
      <use xlink:href="#DejaVuSans-4d"/>
      <use xlink:href="#DejaVuSans-75" transform="translate(86.279297 0)"/>
      <use xlink:href="#DejaVuSans-74" transform="translate(149.658203 0)"/>
      <use xlink:href="#DejaVuSans-61" transform="translate(188.867188 0)"/>
      <use xlink:href="#DejaVuSans-74" transform="translate(250.146484 0)"/>
      <use xlink:href="#DejaVuSans-69" transform="translate(289.355469 0)"/>
      <use xlink:href="#DejaVuSans-6f" transform="translate(317.138672 0)"/>
      <use xlink:href="#DejaVuSans-6e" transform="translate(378.320312 0)"/>
      <use xlink:href="#DejaVuSans-73" transform="translate(441.699219 0)"/>
      <use xlink:href="#DejaVuSans-20" transform="translate(493.798828 0)"/>
      <use xlink:href="#DejaVuSans-43" transform="translate(525.585938 0)"/>
      <use xlink:href="#DejaVuSans-6f" transform="translate(595.410156 0)"/>
      <use xlink:href="#DejaVuSans-6d" transform="translate(656.591797 0)"/>
      <use xlink:href="#DejaVuSans-70" transform="translate(754.003906 0)"/>
      <use xlink:href="#DejaVuSans-61" transform="translate(817.480469 0)"/>
      <use xlink:href="#DejaVuSans-72" transform="translate(878.759766 0)"/>
      <use xlink:href="#DejaVuSans-65" transform="translate(917.623047 0)"/>
      <use xlink:href="#DejaVuSans-64" transform="translate(979.146484 0)"/>
      <use xlink:href="#DejaVuSans-20" transform="translate(1042.623047 0)"/>
      <use xlink:href="#DejaVuSans-74" transform="translate(1074.410156 0)"/>
      <use xlink:href="#DejaVuSans-6f" transform="translate(1113.619141 0)"/>
      <use xlink:href="#DejaVuSans-20" transform="translate(1174.800781 0)"/>
      <use xlink:href="#DejaVuSans-52" transform="translate(1206.587891 0)"/>
      <use xlink:href="#DejaVuSans-6f" transform="translate(1271.570312 0)"/>
      <use xlink:href="#DejaVuSans-6f" transform="translate(1332.751953 0)"/>
      <use xlink:href="#DejaVuSans-74" transform="translate(1393.933594 0)"/>
     </g>
    </g>
   </g>
   <g id="matplotlib.axis_2">
    <g id="ytick_1">
     <g id="line2d_8"/>
    </g>
    <g id="ytick_2">
     <g id="line2d_9"/>
    </g>
    <g id="ytick_3">
     <g id="line2d_10"/>
    </g>
    <g id="ytick_4">
     <g id="line2d_11"/>
    </g>
    <g id="ytick_5">
     <g id="line2d_12"/>
    </g>
    <g id="ytick_6">
     <g id="line2d_13"/>
    </g>
    <g id="ytick_7">
     <g id="line2d_14"/>
    </g>
    <g id="ytick_8">
     <g id="line2d_15"/>
    </g>
   </g>
   <g id="LineCollection_1">
    <path d="M 15.8184 132.983725 
L 101.2728 132.983725 
" clip-path="url(#pd8c673b66e)" style="fill: none; stroke: #708090; stroke-width: 2; stroke-linecap: square"/>
    <path d="M 101.2728 22.620389 
L 101.2728 324.468829 
" clip-path="url(#pd8c673b66e)" style="fill: none; stroke: #708090; stroke-width: 2; stroke-linecap: square"/>
    <path d="M 101.2728 52.805233 
L 101.2728 52.805233 
" clip-path="url(#pd8c673b66e)" style="fill: none; stroke: #708090; stroke-width: 2; stroke-linecap: square"/>
    <path d="M 101.2728 22.620389 
L 101.2728 22.620389 
" clip-path="url(#pd8c673b66e)" style="fill: none; stroke: #708090; stroke-width: 2; stroke-linecap: square"/>
    <path d="M 101.2728 324.468829 
L 186.7272 324.468829 
" clip-path="url(#pd8c673b66e)" style="fill: none; stroke: #708090; stroke-width: 2; stroke-linecap: square"/>
    <path d="M 186.7272 324.468829 
L 186.7272 324.468829 
" clip-path="url(#pd8c673b66e)" style="fill: none; stroke: #708090; stroke-width: 2; stroke-linecap: square"/>
    <path d="M 101.2728 132.040448 
L 186.7272 132.040448 
" clip-path="url(#pd8c673b66e)" style="fill: none; stroke: #708090; stroke-width: 2; stroke-linecap: square"/>
    <path d="M 186.7272 82.990077 
L 186.7272 188.637031 
" clip-path="url(#pd8c673b66e)" style="fill: none; stroke: #708090; stroke-width: 2; stroke-linecap: square"/>
    <path d="M 186.7272 324.468829 
L 272.1816 324.468829 
" clip-path="url(#pd8c673b66e)" style="fill: none; stroke: #708090; stroke-width: 2; stroke-linecap: square"/>
    <path d="M 272.1816 233.914297 
L 272.1816 415.023361 
" clip-path="url(#pd8c673b66e)" style="fill: none; stroke: #708090; stroke-width: 2; stroke-linecap: square"/>
    <path d="M 186.7272 143.359765 
L 186.7272 143.359765 
" clip-path="url(#pd8c673b66e)" style="fill: none; stroke: #708090; stroke-width: 2; stroke-linecap: square"/>
    <path d="M 272.1816 203.729453 
L 272.1816 203.729453 
" clip-path="url(#pd8c673b66e)" style="fill: none; stroke: #708090; stroke-width: 2; stroke-linecap: square"/>
    <path d="M 186.7272 188.637031 
L 272.1816 188.637031 
" clip-path="url(#pd8c673b66e)" style="fill: none; stroke: #708090; stroke-width: 2; stroke-linecap: square"/>
    <path d="M 272.1816 173.544609 
L 272.1816 203.729453 
" clip-path="url(#pd8c673b66e)" style="fill: none; stroke: #708090; stroke-width: 2; stroke-linecap: square"/>
    <path d="M 186.7272 82.990077 
L 186.7272 82.990077 
" clip-path="url(#pd8c673b66e)" style="fill: none; stroke: #708090; stroke-width: 2; stroke-linecap: square"/>
    <path d="M 186.7272 113.174921 
L 186.7272 113.174921 
" clip-path="url(#pd8c673b66e)" style="fill: none; stroke: #708090; stroke-width: 2; stroke-linecap: square"/>
    <path d="M 272.1816 415.023361 
L 272.1816 415.023361 
" clip-path="url(#pd8c673b66e)" style="fill: none; stroke: #708090; stroke-width: 2; stroke-linecap: square"/>
    <path d="M 272.1816 384.838517 
L 272.1816 384.838517 
" clip-path="url(#pd8c673b66e)" style="fill: none; stroke: #708090; stroke-width: 2; stroke-linecap: square"/>
    <path d="M 272.1816 173.544609 
L 272.1816 173.544609 
" clip-path="url(#pd8c673b66e)" style="fill: none; stroke: #708090; stroke-width: 2; stroke-linecap: square"/>
    <path d="M 272.1816 324.468829 
L 272.1816 324.468829 
" clip-path="url(#pd8c673b66e)" style="fill: none; stroke: #708090; stroke-width: 2; stroke-linecap: square"/>
    <path d="M 272.1816 354.653673 
L 272.1816 354.653673 
" clip-path="url(#pd8c673b66e)" style="fill: none; stroke: #708090; stroke-width: 2; stroke-linecap: square"/>
    <path d="M 272.1816 294.283985 
L 272.1816 294.283985 
" clip-path="url(#pd8c673b66e)" style="fill: none; stroke: #708090; stroke-width: 2; stroke-linecap: square"/>
    <path d="M 272.1816 264.099141 
L 272.1816 264.099141 
" clip-path="url(#pd8c673b66e)" style="fill: none; stroke: #708090; stroke-width: 2; stroke-linecap: square"/>
    <path d="M 272.1816 233.914297 
L 272.1816 233.914297 
" clip-path="url(#pd8c673b66e)" style="fill: none; stroke: #708090; stroke-width: 2; stroke-linecap: square"/>
   </g>
   <g id="patch_3">
    <path d="M 3.00024 434.64351 
L 284.99976 434.64351 
" style="fill: none; stroke: #000000; stroke-width: 0.8; stroke-linejoin: miter; stroke-linecap: square"/>
   </g>
   <g id="legend_1">
    <g id="line2d_16">
     <defs>
      <path id="m23cb959c64" d="M 0 5 
C 1.326016 5 2.597899 4.473168 3.535534 3.535534 
C 4.473168 2.597899 5 1.326016 5 0 
C 5 -1.326016 4.473168 -2.597899 3.535534 -3.535534 
C 2.597899 -4.473168 1.326016 -5 0 -5 
C -1.326016 -5 -2.597899 -4.473168 -3.535534 -3.535534 
C -4.473168 -2.597899 -5 -1.326016 -5 0 
C -5 1.326016 -4.473168 2.597899 -3.535534 3.535534 
C -2.597899 4.473168 -1.326016 5 0 5 
z
" style="stroke: #000000"/>
     </defs>
     <g>
      <use xlink:href="#m23cb959c64" x="184.621635" y="16.098678" style="fill: #ffffb3; stroke: #000000"/>
     </g>
    </g>
    <g id="text_9">
     <!-- County A -->
     <g transform="translate(202.621635 19.598678) scale(0.1 -0.1)">
      <defs>
       <path id="DejaVuSans-79" d="M 2059 -325 
Q 1816 -950 1584 -1140 
Q 1353 -1331 966 -1331 
L 506 -1331 
L 506 -850 
L 844 -850 
Q 1081 -850 1212 -737 
Q 1344 -625 1503 -206 
L 1606 56 
L 191 3500 
L 800 3500 
L 1894 763 
L 2988 3500 
L 3597 3500 
L 2059 -325 
z
" transform="scale(0.015625)"/>
       <path id="DejaVuSans-41" d="M 2188 4044 
L 1331 1722 
L 3047 1722 
L 2188 4044 
z
M 1831 4666 
L 2547 4666 
L 4325 0 
L 3669 0 
L 3244 1197 
L 1141 1197 
L 716 0 
L 50 0 
L 1831 4666 
z
" transform="scale(0.015625)"/>
      </defs>
      <use xlink:href="#DejaVuSans-43"/>
      <use xlink:href="#DejaVuSans-6f" transform="translate(69.824219 0)"/>
      <use xlink:href="#DejaVuSans-75" transform="translate(131.005859 0)"/>
      <use xlink:href="#DejaVuSans-6e" transform="translate(194.384766 0)"/>
      <use xlink:href="#DejaVuSans-74" transform="translate(257.763672 0)"/>
      <use xlink:href="#DejaVuSans-79" transform="translate(296.972656 0)"/>
      <use xlink:href="#DejaVuSans-20" transform="translate(356.152344 0)"/>
      <use xlink:href="#DejaVuSans-41" transform="translate(387.939453 0)"/>
     </g>
    </g>
    <g id="line2d_17">
     <defs>
      <path id="m90bd244469" d="M 0 5 
C 1.326016 5 2.597899 4.473168 3.535534 3.535534 
C 4.473168 2.597899 5 1.326016 5 0 
C 5 -1.326016 4.473168 -2.597899 3.535534 -3.535534 
C 2.597899 -4.473168 1.326016 -5 0 -5 
C -1.326016 -5 -2.597899 -4.473168 -3.535534 -3.535534 
C -4.473168 -2.597899 -5 -1.326016 -5 0 
C -5 1.326016 -4.473168 2.597899 -3.535534 3.535534 
C -2.597899 4.473168 -1.326016 5 0 5 
z
" style="stroke: #000000"/>
     </defs>
     <g>
      <use xlink:href="#m90bd244469" x="184.621635" y="30.776803" style="fill: #fb8072; stroke: #000000"/>
     </g>
    </g>
    <g id="text_10">
     <!-- County C -->
     <g transform="translate(202.621635 34.276803) scale(0.1 -0.1)">
      <use xlink:href="#DejaVuSans-43"/>
      <use xlink:href="#DejaVuSans-6f" transform="translate(69.824219 0)"/>
      <use xlink:href="#DejaVuSans-75" transform="translate(131.005859 0)"/>
      <use xlink:href="#DejaVuSans-6e" transform="translate(194.384766 0)"/>
      <use xlink:href="#DejaVuSans-74" transform="translate(257.763672 0)"/>
      <use xlink:href="#DejaVuSans-79" transform="translate(296.972656 0)"/>
      <use xlink:href="#DejaVuSans-20" transform="translate(356.152344 0)"/>
      <use xlink:href="#DejaVuSans-43" transform="translate(387.939453 0)"/>
     </g>
    </g>
    <g id="line2d_18">
     <defs>
      <path id="m04bcb689e4" d="M 0 5 
C 1.326016 5 2.597899 4.473168 3.535534 3.535534 
C 4.473168 2.597899 5 1.326016 5 0 
C 5 -1.326016 4.473168 -2.597899 3.535534 -3.535534 
C 2.597899 -4.473168 1.326016 -5 0 -5 
C -1.326016 -5 -2.597899 -4.473168 -3.535534 -3.535534 
C -4.473168 -2.597899 -5 -1.326016 -5 0 
C -5 1.326016 -4.473168 2.597899 -3.535534 3.535534 
C -2.597899 4.473168 -1.326016 5 0 5 
z
" style="stroke: #000000"/>
     </defs>
     <g>
      <use xlink:href="#m04bcb689e4" x="184.621635" y="45.454928" style="fill: #8dd3c7; stroke: #000000"/>
     </g>
    </g>
    <g id="text_11">
     <!-- County D -->
     <g transform="translate(202.621635 48.954928) scale(0.1 -0.1)">
      <defs>
       <path id="DejaVuSans-44" d="M 1259 4147 
L 1259 519 
L 2022 519 
Q 2988 519 3436 956 
Q 3884 1394 3884 2338 
Q 3884 3275 3436 3711 
Q 2988 4147 2022 4147 
L 1259 4147 
z
M 628 4666 
L 1925 4666 
Q 3281 4666 3915 4102 
Q 4550 3538 4550 2338 
Q 4550 1131 3912 565 
Q 3275 0 1925 0 
L 628 0 
L 628 4666 
z
" transform="scale(0.015625)"/>
      </defs>
      <use xlink:href="#DejaVuSans-43"/>
      <use xlink:href="#DejaVuSans-6f" transform="translate(69.824219 0)"/>
      <use xlink:href="#DejaVuSans-75" transform="translate(131.005859 0)"/>
      <use xlink:href="#DejaVuSans-6e" transform="translate(194.384766 0)"/>
      <use xlink:href="#DejaVuSans-74" transform="translate(257.763672 0)"/>
      <use xlink:href="#DejaVuSans-79" transform="translate(296.972656 0)"/>
      <use xlink:href="#DejaVuSans-20" transform="translate(356.152344 0)"/>
      <use xlink:href="#DejaVuSans-44" transform="translate(387.939453 0)"/>
     </g>
    </g>
    <g id="line2d_19">
     <defs>
      <path id="md90ed34a90" d="M 0 5 
C 1.326016 5 2.597899 4.473168 3.535534 3.535534 
C 4.473168 2.597899 5 1.326016 5 0 
C 5 -1.326016 4.473168 -2.597899 3.535534 -3.535534 
C 2.597899 -4.473168 1.326016 -5 0 -5 
C -1.326016 -5 -2.597899 -4.473168 -3.535534 -3.535534 
C -4.473168 -2.597899 -5 -1.326016 -5 0 
C -5 1.326016 -4.473168 2.597899 -3.535534 3.535534 
C -2.597899 4.473168 -1.326016 5 0 5 
z
" style="stroke: #000000"/>
     </defs>
     <g>
      <use xlink:href="#md90ed34a90" x="184.621635" y="60.133053" style="fill: #bebada; stroke: #000000"/>
     </g>
    </g>
    <g id="text_12">
     <!-- South Carolina -->
     <g transform="translate(202.621635 63.633053) scale(0.1 -0.1)">
      <defs>
       <path id="DejaVuSans-53" d="M 3425 4513 
L 3425 3897 
Q 3066 4069 2747 4153 
Q 2428 4238 2131 4238 
Q 1616 4238 1336 4038 
Q 1056 3838 1056 3469 
Q 1056 3159 1242 3001 
Q 1428 2844 1947 2747 
L 2328 2669 
Q 3034 2534 3370 2195 
Q 3706 1856 3706 1288 
Q 3706 609 3251 259 
Q 2797 -91 1919 -91 
Q 1588 -91 1214 -16 
Q 841 59 441 206 
L 441 856 
Q 825 641 1194 531 
Q 1563 422 1919 422 
Q 2459 422 2753 634 
Q 3047 847 3047 1241 
Q 3047 1584 2836 1778 
Q 2625 1972 2144 2069 
L 1759 2144 
Q 1053 2284 737 2584 
Q 422 2884 422 3419 
Q 422 4038 858 4394 
Q 1294 4750 2059 4750 
Q 2388 4750 2728 4690 
Q 3069 4631 3425 4513 
z
" transform="scale(0.015625)"/>
       <path id="DejaVuSans-68" d="M 3513 2113 
L 3513 0 
L 2938 0 
L 2938 2094 
Q 2938 2591 2744 2837 
Q 2550 3084 2163 3084 
Q 1697 3084 1428 2787 
Q 1159 2491 1159 1978 
L 1159 0 
L 581 0 
L 581 4863 
L 1159 4863 
L 1159 2956 
Q 1366 3272 1645 3428 
Q 1925 3584 2291 3584 
Q 2894 3584 3203 3211 
Q 3513 2838 3513 2113 
z
" transform="scale(0.015625)"/>
       <path id="DejaVuSans-6c" d="M 603 4863 
L 1178 4863 
L 1178 0 
L 603 0 
L 603 4863 
z
" transform="scale(0.015625)"/>
      </defs>
      <use xlink:href="#DejaVuSans-53"/>
      <use xlink:href="#DejaVuSans-6f" transform="translate(63.476562 0)"/>
      <use xlink:href="#DejaVuSans-75" transform="translate(124.658203 0)"/>
      <use xlink:href="#DejaVuSans-74" transform="translate(188.037109 0)"/>
      <use xlink:href="#DejaVuSans-68" transform="translate(227.246094 0)"/>
      <use xlink:href="#DejaVuSans-20" transform="translate(290.625 0)"/>
      <use xlink:href="#DejaVuSans-43" transform="translate(322.412109 0)"/>
      <use xlink:href="#DejaVuSans-61" transform="translate(392.236328 0)"/>
      <use xlink:href="#DejaVuSans-72" transform="translate(453.515625 0)"/>
      <use xlink:href="#DejaVuSans-6f" transform="translate(492.378906 0)"/>
      <use xlink:href="#DejaVuSans-6c" transform="translate(553.560547 0)"/>
      <use xlink:href="#DejaVuSans-69" transform="translate(581.34375 0)"/>
      <use xlink:href="#DejaVuSans-6e" transform="translate(609.126953 0)"/>
      <use xlink:href="#DejaVuSans-61" transform="translate(672.505859 0)"/>
     </g>
    </g>
   </g>
   <g id="PathCollection_1">
    <path d="M 101.2728 55.96751 
C 102.111446 55.96751 102.915856 55.634313 103.508868 55.041301 
C 104.10188 54.448289 104.435078 53.643879 104.435078 52.805233 
C 104.435078 51.966587 104.10188 51.162177 103.508868 50.569165 
C 102.915856 49.976153 102.111446 49.642955 101.2728 49.642955 
C 100.434154 49.642955 99.629744 49.976153 99.036732 50.569165 
C 98.44372 51.162177 98.110522 51.966587 98.110522 52.805233 
C 98.110522 53.643879 98.44372 54.448289 99.036732 55.041301 
C 99.629744 55.634313 100.434154 55.96751 101.2728 55.96751 
z
" clip-path="url(#pd8c673b66e)"/>
    <path d="M 186.7272 146.522043 
C 187.565846 146.522043 188.370256 146.188845 188.963268 145.595833 
C 189.55628 145.002821 189.889478 144.198411 189.889478 143.359765 
C 189.889478 142.521119 189.55628 141.716709 188.963268 141.123697 
C 188.370256 140.530685 187.565846 140.197487 186.7272 140.197487 
C 185.888554 140.197487 185.084144 140.530685 184.491132 141.123697 
C 183.89812 141.716709 183.564922 142.521119 183.564922 143.359765 
C 183.564922 144.198411 183.89812 145.002821 184.491132 145.595833 
C 185.084144 146.188845 185.888554 146.522043 186.7272 146.522043 
z
" clip-path="url(#pd8c673b66e)"/>
   </g>
   <g id="PathCollection_2">
    <path d="M 101.2728 55.041301 
C 101.865812 55.041301 102.434616 54.805694 102.853939 54.386372 
C 103.273262 53.967049 103.508868 53.398245 103.508868 52.805233 
C 103.508868 52.212221 103.273262 51.643417 102.853939 51.224094 
C 102.434616 50.804771 101.865812 50.569165 101.2728 50.569165 
C 100.679788 50.569165 100.110984 50.804771 99.691661 51.224094 
C 99.272338 51.643417 99.036732 52.212221 99.036732 52.805233 
C 99.036732 53.398245 99.272338 53.967049 99.691661 54.386372 
C 100.110984 54.805694 100.679788 55.041301 101.2728 55.041301 
z
" clip-path="url(#pd8c673b66e)" style="fill: #d3d3d3"/>
    <path d="M 186.7272 145.595833 
C 187.320212 145.595833 187.889016 145.360227 188.308339 144.940904 
C 188.727662 144.521581 188.963268 143.952777 188.963268 143.359765 
C 188.963268 142.766753 188.727662 142.197949 188.308339 141.778626 
C 187.889016 141.359303 187.320212 141.123697 186.7272 141.123697 
C 186.134188 141.123697 185.565384 141.359303 185.146061 141.778626 
C 184.726738 142.197949 184.491132 142.766753 184.491132 143.359765 
C 184.491132 143.952777 184.726738 144.521581 185.146061 144.940904 
C 185.565384 145.360227 186.134188 145.595833 186.7272 145.595833 
z
" clip-path="url(#pd8c673b66e)" style="fill: #d3d3d3"/>
   </g>
   <g id="PathCollection_3">
    <path d="M 101.2728 25.535865 
C 102.045993 25.535865 102.787623 25.228672 103.334353 24.681941 
C 103.881083 24.135211 104.188276 23.393582 104.188276 22.620389 
C 104.188276 21.847195 103.881083 21.105566 103.334353 20.558836 
C 102.787623 20.012106 102.045993 19.704913 101.2728 19.704913 
C 100.499607 19.704913 99.757977 20.012106 99.211247 20.558836 
C 98.664517 21.105566 98.357324 21.847195 98.357324 22.620389 
C 98.357324 23.393582 98.664517 24.135211 99.211247 24.681941 
C 99.757977 25.228672 100.499607 25.535865 101.2728 25.535865 
z
" clip-path="url(#pd8c673b66e)"/>
    <path d="M 272.1816 206.644929 
C 272.954793 206.644929 273.696423 206.337736 274.243153 205.791006 
C 274.789883 205.244276 275.097076 204.502646 275.097076 203.729453 
C 275.097076 202.95626 274.789883 202.21463 274.243153 201.6679 
C 273.696423 201.12117 272.954793 200.813977 272.1816 200.813977 
C 271.408407 200.813977 270.666777 201.12117 270.120047 201.6679 
C 269.573317 202.21463 269.266124 202.95626 269.266124 203.729453 
C 269.266124 204.502646 269.573317 205.244276 270.120047 205.791006 
C 270.666777 206.337736 271.408407 206.644929 272.1816 206.644929 
z
" clip-path="url(#pd8c673b66e)"/>
    <path d="M 186.7272 85.905553 
C 187.500393 85.905553 188.242023 85.59836 188.788753 85.05163 
C 189.335483 84.504899 189.642676 83.76327 189.642676 82.990077 
C 189.642676 82.216883 189.335483 81.475254 188.788753 80.928524 
C 188.242023 80.381794 187.500393 80.074601 186.7272 80.074601 
C 185.954007 80.074601 185.212377 80.381794 184.665647 80.928524 
C 184.118917 81.475254 183.811724 82.216883 183.811724 82.990077 
C 183.811724 83.76327 184.118917 84.504899 184.665647 85.05163 
C 185.212377 85.59836 185.954007 85.905553 186.7272 85.905553 
z
" clip-path="url(#pd8c673b66e)"/>
    <path d="M 186.7272 116.090397 
C 187.500393 116.090397 188.242023 115.783204 188.788753 115.236474 
C 189.335483 114.689743 189.642676 113.948114 189.642676 113.174921 
C 189.642676 112.401728 189.335483 111.660098 188.788753 111.113368 
C 188.242023 110.566638 187.500393 110.259445 186.7272 110.259445 
C 185.954007 110.259445 185.212377 110.566638 184.665647 111.113368 
C 184.118917 111.660098 183.811724 112.401728 183.811724 113.174921 
C 183.811724 113.948114 184.118917 114.689743 184.665647 115.236474 
C 185.212377 115.783204 185.954007 116.090397 186.7272 116.090397 
z
" clip-path="url(#pd8c673b66e)"/>
    <path d="M 272.1816 417.938837 
C 272.954793 417.938837 273.696423 417.631644 274.243153 417.084914 
C 274.789883 416.538184 275.097076 415.796555 275.097076 415.023361 
C 275.097076 414.250168 274.789883 413.508539 274.243153 412.961809 
C 273.696423 412.415078 272.954793 412.107885 272.1816 412.107885 
C 271.408407 412.107885 270.666777 412.415078 270.120047 412.961809 
C 269.573317 413.508539 269.266124 414.250168 269.266124 415.023361 
C 269.266124 415.796555 269.573317 416.538184 270.120047 417.084914 
C 270.666777 417.631644 271.408407 417.938837 272.1816 417.938837 
z
" clip-path="url(#pd8c673b66e)"/>
    <path d="M 272.1816 387.753993 
C 272.954793 387.753993 273.696423 387.4468 274.243153 386.90007 
C 274.789883 386.35334 275.097076 385.611711 275.097076 384.838517 
C 275.097076 384.065324 274.789883 383.323695 274.243153 382.776964 
C 273.696423 382.230234 272.954793 381.923041 272.1816 381.923041 
C 271.408407 381.923041 270.666777 382.230234 270.120047 382.776964 
C 269.573317 383.323695 269.266124 384.065324 269.266124 384.838517 
C 269.266124 385.611711 269.573317 386.35334 270.120047 386.90007 
C 270.666777 387.4468 271.408407 387.753993 272.1816 387.753993 
z
" clip-path="url(#pd8c673b66e)"/>
    <path d="M 272.1816 176.460085 
C 272.954793 176.460085 273.696423 176.152892 274.243153 175.606162 
C 274.789883 175.059432 275.097076 174.317802 275.097076 173.544609 
C 275.097076 172.771416 274.789883 172.029786 274.243153 171.483056 
C 273.696423 170.936326 272.954793 170.629133 272.1816 170.629133 
C 271.408407 170.629133 270.666777 170.936326 270.120047 171.483056 
C 269.573317 172.029786 269.266124 172.771416 269.266124 173.544609 
C 269.266124 174.317802 269.573317 175.059432 270.120047 175.606162 
C 270.666777 176.152892 271.408407 176.460085 272.1816 176.460085 
z
" clip-path="url(#pd8c673b66e)"/>
    <path d="M 272.1816 327.384305 
C 272.954793 327.384305 273.696423 327.077112 274.243153 326.530382 
C 274.789883 325.983652 275.097076 325.242022 275.097076 324.468829 
C 275.097076 323.695636 274.789883 322.954007 274.243153 322.407276 
C 273.696423 321.860546 272.954793 321.553353 272.1816 321.553353 
C 271.408407 321.553353 270.666777 321.860546 270.120047 322.407276 
C 269.573317 322.954007 269.266124 323.695636 269.266124 324.468829 
C 269.266124 325.242022 269.573317 325.983652 270.120047 326.530382 
C 270.666777 327.077112 271.408407 327.384305 272.1816 327.384305 
z
" clip-path="url(#pd8c673b66e)"/>
    <path d="M 272.1816 357.569149 
C 272.954793 357.569149 273.696423 357.261956 274.243153 356.715226 
C 274.789883 356.168496 275.097076 355.426867 275.097076 354.653673 
C 275.097076 353.88048 274.789883 353.138851 274.243153 352.59212 
C 273.696423 352.04539 272.954793 351.738197 272.1816 351.738197 
C 271.408407 351.738197 270.666777 352.04539 270.120047 352.59212 
C 269.573317 353.138851 269.266124 353.88048 269.266124 354.653673 
C 269.266124 355.426867 269.573317 356.168496 270.120047 356.715226 
C 270.666777 357.261956 271.408407 357.569149 272.1816 357.569149 
z
" clip-path="url(#pd8c673b66e)"/>
    <path d="M 272.1816 297.199461 
C 272.954793 297.199461 273.696423 296.892268 274.243153 296.345538 
C 274.789883 295.798808 275.097076 295.057178 275.097076 294.283985 
C 275.097076 293.510792 274.789883 292.769163 274.243153 292.222432 
C 273.696423 291.675702 272.954793 291.368509 272.1816 291.368509 
C 271.408407 291.368509 270.666777 291.675702 270.120047 292.222432 
C 269.573317 292.769163 269.266124 293.510792 269.266124 294.283985 
C 269.266124 295.057178 269.573317 295.798808 270.120047 296.345538 
C 270.666777 296.892268 271.408407 297.199461 272.1816 297.199461 
z
" clip-path="url(#pd8c673b66e)"/>
    <path d="M 272.1816 267.014617 
C 272.954793 267.014617 273.696423 266.707424 274.243153 266.160694 
C 274.789883 265.613964 275.097076 264.872334 275.097076 264.099141 
C 275.097076 263.325948 274.789883 262.584318 274.243153 262.037588 
C 273.696423 261.490858 272.954793 261.183665 272.1816 261.183665 
C 271.408407 261.183665 270.666777 261.490858 270.120047 262.037588 
C 269.573317 262.584318 269.266124 263.325948 269.266124 264.099141 
C 269.266124 264.872334 269.573317 265.613964 270.120047 266.160694 
C 270.666777 266.707424 271.408407 267.014617 272.1816 267.014617 
z
" clip-path="url(#pd8c673b66e)"/>
    <path d="M 272.1816 236.829773 
C 272.954793 236.829773 273.696423 236.52258 274.243153 235.97585 
C 274.789883 235.42912 275.097076 234.68749 275.097076 233.914297 
C 275.097076 233.141104 274.789883 232.399474 274.243153 231.852744 
C 273.696423 231.306014 272.954793 230.998821 272.1816 230.998821 
C 271.408407 230.998821 270.666777 231.306014 270.120047 231.852744 
C 269.573317 232.399474 269.266124 233.141104 269.266124 233.914297 
C 269.266124 234.68749 269.573317 235.42912 270.120047 235.97585 
C 270.666777 236.52258 271.408407 236.829773 272.1816 236.829773 
z
" clip-path="url(#pd8c673b66e)"/>
   </g>
   <g id="PathCollection_4">
    <path d="M 101.2728 24.681941 
C 101.81953 24.681941 102.343941 24.464723 102.730538 24.078127 
C 103.117135 23.69153 103.334353 23.167119 103.334353 22.620389 
C 103.334353 22.073658 103.117135 21.549247 102.730538 21.162651 
C 102.343941 20.776054 101.81953 20.558836 101.2728 20.558836 
C 100.72607 20.558836 100.201659 20.776054 99.815062 21.162651 
C 99.428465 21.549247 99.211247 22.073658 99.211247 22.620389 
C 99.211247 23.167119 99.428465 23.69153 99.815062 24.078127 
C 100.201659 24.464723 100.72607 24.681941 101.2728 24.681941 
z
" clip-path="url(#pd8c673b66e)" style="fill: #ffffb3"/>
    <path d="M 272.1816 205.791006 
C 272.72833 205.791006 273.252741 205.573788 273.639338 205.187191 
C 274.025935 204.800594 274.243153 204.276183 274.243153 203.729453 
C 274.243153 203.182723 274.025935 202.658312 273.639338 202.271715 
C 273.252741 201.885118 272.72833 201.6679 272.1816 201.6679 
C 271.63487 201.6679 271.110459 201.885118 270.723862 202.271715 
C 270.337265 202.658312 270.120047 203.182723 270.120047 203.729453 
C 270.120047 204.276183 270.337265 204.800594 270.723862 205.187191 
C 271.110459 205.573788 271.63487 205.791006 272.1816 205.791006 
z
" clip-path="url(#pd8c673b66e)" style="fill: #fb8072"/>
    <path d="M 186.7272 85.05163 
C 187.27393 85.05163 187.798341 84.834411 188.184938 84.447815 
C 188.571535 84.061218 188.788753 83.536807 188.788753 82.990077 
C 188.788753 82.443347 188.571535 81.918935 188.184938 81.532339 
C 187.798341 81.145742 187.27393 80.928524 186.7272 80.928524 
C 186.18047 80.928524 185.656059 81.145742 185.269462 81.532339 
C 184.882865 81.918935 184.665647 82.443347 184.665647 82.990077 
C 184.665647 83.536807 184.882865 84.061218 185.269462 84.447815 
C 185.656059 84.834411 186.18047 85.05163 186.7272 85.05163 
z
" clip-path="url(#pd8c673b66e)" style="fill: #fb8072"/>
    <path d="M 186.7272 115.236474 
C 187.27393 115.236474 187.798341 115.019255 188.184938 114.632659 
C 188.571535 114.246062 188.788753 113.721651 188.788753 113.174921 
C 188.788753 112.628191 188.571535 112.103779 188.184938 111.717183 
C 187.798341 111.330586 187.27393 111.113368 186.7272 111.113368 
C 186.18047 111.113368 185.656059 111.330586 185.269462 111.717183 
C 184.882865 112.103779 184.665647 112.628191 184.665647 113.174921 
C 184.665647 113.721651 184.882865 114.246062 185.269462 114.632659 
C 185.656059 115.019255 186.18047 115.236474 186.7272 115.236474 
z
" clip-path="url(#pd8c673b66e)" style="fill: #fb8072"/>
    <path d="M 272.1816 417.084914 
C 272.72833 417.084914 273.252741 416.867696 273.639338 416.481099 
C 274.025935 416.094503 274.243153 415.570092 274.243153 415.023361 
C 274.243153 414.476631 274.025935 413.95222 273.639338 413.565623 
C 273.252741 413.179027 272.72833 412.961809 272.1816 412.961809 
C 271.63487 412.961809 271.110459 413.179027 270.723862 413.565623 
C 270.337265 413.95222 270.120047 414.476631 270.120047 415.023361 
C 270.120047 415.570092 270.337265 416.094503 270.723862 416.481099 
C 271.110459 416.867696 271.63487 417.084914 272.1816 417.084914 
z
" clip-path="url(#pd8c673b66e)" style="fill: #bebada"/>
    <path d="M 272.1816 386.90007 
C 272.72833 386.90007 273.252741 386.682852 273.639338 386.296255 
C 274.025935 385.909659 274.243153 385.385248 274.243153 384.838517 
C 274.243153 384.291787 274.025935 383.767376 273.639338 383.380779 
C 273.252741 382.994183 272.72833 382.776964 272.1816 382.776964 
C 271.63487 382.776964 271.110459 382.994183 270.723862 383.380779 
C 270.337265 383.767376 270.120047 384.291787 270.120047 384.838517 
C 270.120047 385.385248 270.337265 385.909659 270.723862 386.296255 
C 271.110459 386.682852 271.63487 386.90007 272.1816 386.90007 
z
" clip-path="url(#pd8c673b66e)" style="fill: #bebada"/>
    <path d="M 272.1816 175.606162 
C 272.72833 175.606162 273.252741 175.388944 273.639338 175.002347 
C 274.025935 174.61575 274.243153 174.091339 274.243153 173.544609 
C 274.243153 172.997879 274.025935 172.473468 273.639338 172.086871 
C 273.252741 171.700274 272.72833 171.483056 272.1816 171.483056 
C 271.63487 171.483056 271.110459 171.700274 270.723862 172.086871 
C 270.337265 172.473468 270.120047 172.997879 270.120047 173.544609 
C 270.120047 174.091339 270.337265 174.61575 270.723862 175.002347 
C 271.110459 175.388944 271.63487 175.606162 272.1816 175.606162 
z
" clip-path="url(#pd8c673b66e)" style="fill: #fb8072"/>
    <path d="M 272.1816 326.530382 
C 272.72833 326.530382 273.252741 326.313164 273.639338 325.926567 
C 274.025935 325.539971 274.243153 325.015559 274.243153 324.468829 
C 274.243153 323.922099 274.025935 323.397688 273.639338 323.011091 
C 273.252741 322.624495 272.72833 322.407276 272.1816 322.407276 
C 271.63487 322.407276 271.110459 322.624495 270.723862 323.011091 
C 270.337265 323.397688 270.120047 323.922099 270.120047 324.468829 
C 270.120047 325.015559 270.337265 325.539971 270.723862 325.926567 
C 271.110459 326.313164 271.63487 326.530382 272.1816 326.530382 
z
" clip-path="url(#pd8c673b66e)" style="fill: #8dd3c7"/>
    <path d="M 272.1816 356.715226 
C 272.72833 356.715226 273.252741 356.498008 273.639338 356.111411 
C 274.025935 355.724815 274.243153 355.200403 274.243153 354.653673 
C 274.243153 354.106943 274.025935 353.582532 273.639338 353.195935 
C 273.252741 352.809339 272.72833 352.59212 272.1816 352.59212 
C 271.63487 352.59212 271.110459 352.809339 270.723862 353.195935 
C 270.337265 353.582532 270.120047 354.106943 270.120047 354.653673 
C 270.120047 355.200403 270.337265 355.724815 270.723862 356.111411 
C 271.110459 356.498008 271.63487 356.715226 272.1816 356.715226 
z
" clip-path="url(#pd8c673b66e)" style="fill: #8dd3c7"/>
    <path d="M 272.1816 296.345538 
C 272.72833 296.345538 273.252741 296.12832 273.639338 295.741723 
C 274.025935 295.355126 274.243153 294.830715 274.243153 294.283985 
C 274.243153 293.737255 274.025935 293.212844 273.639338 292.826247 
C 273.252741 292.439651 272.72833 292.222432 272.1816 292.222432 
C 271.63487 292.222432 271.110459 292.439651 270.723862 292.826247 
C 270.337265 293.212844 270.120047 293.737255 270.120047 294.283985 
C 270.120047 294.830715 270.337265 295.355126 270.723862 295.741723 
C 271.110459 296.12832 271.63487 296.345538 272.1816 296.345538 
z
" clip-path="url(#pd8c673b66e)" style="fill: #8dd3c7"/>
    <path d="M 272.1816 266.160694 
C 272.72833 266.160694 273.252741 265.943476 273.639338 265.556879 
C 274.025935 265.170282 274.243153 264.645871 274.243153 264.099141 
C 274.243153 263.552411 274.025935 263.028 273.639338 262.641403 
C 273.252741 262.254806 272.72833 262.037588 272.1816 262.037588 
C 271.63487 262.037588 271.110459 262.254806 270.723862 262.641403 
C 270.337265 263.028 270.120047 263.552411 270.120047 264.099141 
C 270.120047 264.645871 270.337265 265.170282 270.723862 265.556879 
C 271.110459 265.943476 271.63487 266.160694 272.1816 266.160694 
z
" clip-path="url(#pd8c673b66e)" style="fill: #8dd3c7"/>
    <path d="M 272.1816 235.97585 
C 272.72833 235.97585 273.252741 235.758632 273.639338 235.372035 
C 274.025935 234.985438 274.243153 234.461027 274.243153 233.914297 
C 274.243153 233.367567 274.025935 232.843156 273.639338 232.456559 
C 273.252741 232.069962 272.72833 231.852744 272.1816 231.852744 
C 271.63487 231.852744 271.110459 232.069962 270.723862 232.456559 
C 270.337265 232.843156 270.120047 233.367567 270.120047 233.914297 
C 270.120047 234.461027 270.337265 234.985438 270.723862 235.372035 
C 271.110459 235.758632 271.63487 235.97585 272.1816 235.97585 
z
" clip-path="url(#pd8c673b66e)" style="fill: #8dd3c7"/>
   </g>
   <g id="text_13">
    <!-- -161 -->
    <g transform="translate(102.127344 55.564608) scale(0.1 -0.1)">
     <defs>
      <path id="DejaVuSans-2d" d="M 313 2009 
L 1997 2009 
L 1997 1497 
L 313 1497 
L 313 2009 
z
" transform="scale(0.015625)"/>
      <path id="DejaVuSans-36" d="M 2113 2584 
Q 1688 2584 1439 2293 
Q 1191 2003 1191 1497 
Q 1191 994 1439 701 
Q 1688 409 2113 409 
Q 2538 409 2786 701 
Q 3034 994 3034 1497 
Q 3034 2003 2786 2293 
Q 2538 2584 2113 2584 
z
M 3366 4563 
L 3366 3988 
Q 3128 4100 2886 4159 
Q 2644 4219 2406 4219 
Q 1781 4219 1451 3797 
Q 1122 3375 1075 2522 
Q 1259 2794 1537 2939 
Q 1816 3084 2150 3084 
Q 2853 3084 3261 2657 
Q 3669 2231 3669 1497 
Q 3669 778 3244 343 
Q 2819 -91 2113 -91 
Q 1303 -91 875 529 
Q 447 1150 447 2328 
Q 447 3434 972 4092 
Q 1497 4750 2381 4750 
Q 2619 4750 2861 4703 
Q 3103 4656 3366 4563 
z
" transform="scale(0.015625)"/>
     </defs>
     <use xlink:href="#DejaVuSans-2d"/>
     <use xlink:href="#DejaVuSans-31" transform="translate(36.083984 0)"/>
     <use xlink:href="#DejaVuSans-36" transform="translate(99.707031 0)"/>
     <use xlink:href="#DejaVuSans-31" transform="translate(163.330078 0)"/>
    </g>
   </g>
   <g id="text_14">
    <!-- -7 -->
    <g transform="translate(187.581744 146.11914) scale(0.1 -0.1)">
     <defs>
      <path id="DejaVuSans-37" d="M 525 4666 
L 3525 4666 
L 3525 4397 
L 1831 0 
L 1172 0 
L 2766 4134 
L 525 4134 
L 525 4666 
z
" transform="scale(0.015625)"/>
     </defs>
     <use xlink:href="#DejaVuSans-2d"/>
     <use xlink:href="#DejaVuSans-37" transform="translate(36.083984 0)"/>
    </g>
   </g>
  </g>
 </g>
 <defs>
  <clipPath id="pd8c673b66e">
   <rect x="3.00024" y="3.00024" width="281.99952" height="431.64327"/>
  </clipPath>
 </defs>
</svg>
